<svg xmlns="http://www.w3.org/2000/svg" viewBox="0 0 1500 1500">
  <path d="M450.72 365.228l.3-1.359 2.057-1.869-.15 1.046zm326.373 56.129l4.91 1.188-.905-3.463 3.664-.862-.9-3.019.757-3.359 2.936-3.241 1.616-2.913 3.884-1.769 3.221-2.023 3.794.09 2.492.817 2.566-.862 3.218.178.3 2.676-1.945 2.825-2.416 1.591-.208 1.992 3.872-2.988 2.712 1.992.922-1.561-2-1.383 1.2-1.679 2.313 1.084.711 1.324.475 2.557 2.135 3.2.964-2.676-.281-2.572-.964-2.2 1.765-.608-1.216-2.81 3.041-2.082 3.913.061 2.774 4.7 1.469 2.809 2.386 3.286 2.552 2.928 2.641 2.32 1.257 2.482 3.4 1.651 3.19 3.032 3.454.729 4.494 1.694 2.2 1.948-3.529 1.486.472 2.616 2.566 2.068 2.641-1.369 4.418 1.843 3.676 2.6 2.982 3.731 1.72-1.783 2.509 2.824-1.484 4.639 2.982-.788 2.594 1.978-1.573 2.155.269 1.842.043 2.379 2.551-.773 3.931 2.454 1.971 2.348-7.386 1.576 3.856.551 4.272.252 4.314 1.025 2.939 2.439 3.336 3.062-1.8 2.632-2.844.609-3.322-2.11-2.7-1.592-.827 2.587 3.809 2.661-.534 3.33 1.635 1.561.888-3.643 4.3-.728 3.038-1.649.95 3.166.061 3.753.16 3.879-.531 3.345-1.2 3.806-1.873 3.213-1.435 3.8-3.248 2.251-.649 3.109.278 4.294 1.256 3.627.932 3.732-.442 3.835-.843 3.924-2.174 4.618-4.518 2.429-2.762 3.124.974 3.687-3.605.874 5.007 4.2 2.085 3.953 1.492 4.25-.3 5.109-1.755 4.071 4.443 4.59.371 4.783 1.224 4.382 1.831 4.132.475 4.722-1.92 2.518-6.321-.7-3.9-2.406h-4.283l-5.567 1.31-6.09-3.45-7.972-7.492-2.085-2.4-5.981-5.063-1.7-3.361-3.53-1.954-1.92-4.842-3.37-4.294-5.334-2.998-1.548-4.087-2.381-3.834-1.52-4.768-.739-5.063 1.035-3.954 4.876-1.481-1.878-6.145-3.53-4.175-1.153 4.368-3.944 2.636-4.622-2.014-.996-4.812-.826-4.842 4.076-.873 5.451 1.021-2.659-3.612-3.781-.356-3.456-4.072-.767 3.08-3.429.888-2.127-1.7-.294-4.131-2.5-2.872-.87-4.8-1.618-3.082-3.205-2.754-1.4-3.851-3.595-3.076-2.776-2.28-.9-2.679-3.987-.43-4.357-2.044-3.754.578-4.061.873-2.438 1.94-4.459-1.258-2.407-1.792 1.4-1.836-3.322-1.347-2.069-1.615 2.231-1.909 3.087-1.007-3.339-1.555-.9-2.577-2.541.5-2.489-2.014-.168-.207 1.092-3.183 3.5-1.466 2.687-2.25 4.933-1.861 1.078-4.369-1.33-2.354-4.165.46.857-3.494 3.308-5.316 2.244-.029.178-2.245-1.675-2.23 2.594-2.974zm82.955 16.351l2.965 2.078.836-1.54zm-41.78-94.991l3.711 1.466-1.535.493-.375 1.241 4.67 1.494.133-1.39-1.074-1.24 1.939-.568-.3-1.644-1.953-1.3-2.084.731-3.041-.3zm-31.029 213.867l2.73 4.842 5 2.258.418-4.484 4.086-2.108.148-3.648 1.237-5.41-3.294-2.346-8.441-4.605-3.786-3.064-5.4.613-5-3.138-.522-4.231 4.159-1.838-4.25-3.079.865-3.648-3.114-3.946-4.639-2.436-4.892-4.663L759 509.71l-4.606-.554-.074-4.14-.971-2.706-3.95.643-2.953-1.69-2.713-.9-3.4 2.571-3.252-.179-3.072 2.271 1.415-4.026-.632-1.779-.833-.345-.492-3.648 1.147-2.616.282-.039-.591-1.2-3.295.36-4.085 2.267-3.729 3.02-1.968 7.414.314 3.482-2.3-3.079.984-6.816 1.85-3.228 1.968-2.063 4.264-1.7-3.563-.672-4.012-.568-3.011 1.6-3.639 2.81-2.237 3.124-2.073 3.154-1.327 4.679 1.909 3.93 1.163 4.47 1.968 3.811 4.25 3.513 4.415.552 6.068 1.989 3.235-.4 4.429 3.857 2.775-1.286 3.19-4.066 1.656 3.588 5.262 4.334-1.222 5.591 3.937-2.781 2.548 4.246 4.341 2.735 1.311 4.245 1.373 3.572-2.312 2.9-2.639 3.677-3.043 2.9 3.5 4.291-3.8 3h-5.145l-5.742-1.621-.774 2.854-2.3.7-1.5 3.528 2.1 3.767 6.041.164 3.041-2.153 4.326.718 4.04 2.153 3.773 1.4 3.472 2.078.2 3.706 3.668 2.75 3.266 1.331 4.338 1.15 1.627 2.093 4.16 1.9 4.1 1.136 4.4.269-.508-3.617-3.592-2.66-3.922-3.274-3.444-2.705-2.089-3.468 5.01 1.794 4.145 2.525 4.892 2.408 5.2-.643v-5.89l-3.638-3.258-1.043-4.305-3.071-2.541-4.713-3.183-2.834-4.112.18-5.858zM844.75 315.5l-4.608-.49-4.77-.688-3.834-1.225-4.476-.9-4.143-.613-3.088 1.6 1.331 1.794 4.289.732 3.269-.328 4.309 1.479 3.236 2.123 5.131 1.165 3.905.314 2.7.15 4.427 1.554.455-.164-3.9-6.5zm28.881.122l-3.5-.122h-3.877l-4.21.81-2.944 4.851.844-.039 4.666.614 1.449-1.421 3.535 1.077 4.755.179 1.953-1.016 3.606 1.286 3.52-.852.794-2.617.461-2.256-1.834-2.8-2.627-2.78-2.637-.866.565 2.795-1.653 1.764zM696.368 447.2l2.788 2.167 2.267.807-.18 3.5 2.715-.554 5.635.972 1.7-2.018.074-2.018-2.46-3.588-1.774 2.946-2.148 2.675-1.565-.912.626-2.735 1.535-2.855-1-3.035-2.429-.882-1.119-1.973-2.087-.851-1.82.792-.328 1.614 1.923 2.272-2.653 1.539zm20 .627l-.717 3.467 1.387 3.214 5.026 1 2.908-2.362 2.385-3.318 2.743-1.57.657-2.855-2.625-1.329 1.611-3.006-.76-2.062-3.177-1.181-.82-2.511.254-3.453-2.118-.478-1.551 3.169-2.847 2.078-1.4 3.228.955 2.481-.074 3.11zm-205.316-46.336l1.058-3.154 2.311-2.556.552-3.617-2.8.746.3 2.721-3.161 3.543zm70.44-34.739l3.624-1.957 1.251-3.542-2.4-2.511-2.58.448.492 2.331-1.491 1.779zM488.58 565.626l-1.953-2.137-1.6-3.035-3.519 4.2-.1 3.332-2.371 4.216-.9 4.215v5.68l7.741-4.56v-3.377l-3.527-1.734 2.116-4.484zm174.357-249.683l1.446.808 2.669-.493 1.327-.777h4.086l-.433-2.452 5.846-.3 1.566-2.242-2.566-2.8-4.249-.986-2.774.837-3.713 3.886-2.505.3-.819 2.048zm24.306 142.706l-.4 3.5-1 2.615.268 3.736 3.952-.4-.269 4.8 4.892 1.585 2.862-3.513 1.119-3.244 1.342-2.824-1.924-3.065-3.25-1.345-2.416 1.569-1.879 2.99-.418-3.408-.79-2.586zm-21.413-155.3l-2.029-.942-.969.971 1.313.837zm25.975 149.636l1.148-2.347-1.938-.089-1.656 3.647 1.939 1.673zm42.232 44.11l.755 2.123 2.671 1.1 2.8-1.106 4.28 1.031.506-2.45-.774-3.379-2.744-1.7-3.639-.568-3 .424.453.922zm139.119 546.68l2.114-2.272-.209-3.814-5.9 1.633 1.549.434.162 3.119-2.872 1.78zm7.231-331.545l1 3.677 3.491-.989-.626-9.475-2.67 1.63.166-4.873-1.687 1.255-.912 4.305-1.876-1.121.161-3.228 3.012-5.68-4.067 1.928-2.252-2.571 1.758-4.529-3.235-.733-3.787 1-3.52 1.778-4.143-2.226 1.786-2.825-3.639-.628-3.5 3.976.745-4.933 1.1-3.408 1.149-5.051.159-4.809-2.713.673-3.088 3.124-1.088 3.378-.461 4.1-1.3 5.038-.209 5.56-1.881 5.141-1.1 4.216 2.091.313-2.314 3.618-1.967 2.765 1.744 3.634 4.176-2.481 5.2-.271 8.9-2.077 4.085-.24.746 2.973-2.418 4.865h3.73l1.8-7.195 2.2-.565h3.167l-.252 4.019zm-14.495 285.94l1.33-2.272-2.209-.285zM468.406 474.238l2.194 2.062 2.237-2.422.179-2.123 2.892 1.959 1.462-2.586-3.385-.957-3.191-.777-4.667-.882-3.132 4.933 2.55 1.15zm399.353 519.521l-.537 2.138 2.162-.357zm339.661-513l-.238-.314-1.853-3.02.537 1.047.451 1.031.046.127 2.069 2.862zM817.107 338.413l.451.353 1.993-.02-2.015-1.48zm-4.954-1.267l-2.789.927-1.214-.465-1.544.133-2.476 1.7 4.058.283 2.682-1.285 1.565 1.3 2.164-.239-.269-.725h-.344zm-323.364-44.861l-1.149.958-.685 1.553 1.461-1.4zm321.649 43.871l1.166.4-1.345-1.455-1.82-.119-2.788 1.674 2.5.955 1.781-.152zm3.158 1.074l-1.992-.677.549.593zm-328.222 83.483l.687-2.152-1.1-3.872-2.1 2.7-.805 2.451 1.326 1.674zm331.733-82.3l-1.347-1.057-2.164-.126.181.062.553 1.487 3.283.031-.055-.044-.587.01zm-330.361-32.584l-1.4 1.943.731.507 1.4-.238-.312-1 1.058-1.478zm315.223 29.135l-1.744 2.107 3.354.18 2.072-.6-1.088-1.39zm41.137 48.44l.181.123 3.639.565 5.8.224 4.471-1.211.061-2.556 2.414 2.3 4.086.224 4.371-.972 4.608-2.048-4.532-1.121-9.483-3.362-3.535-.449-2.091-1.8 4-.238 2.133-1.181 4.685 1.524 1.086-2.503-5.131-3.259-2.442 2.139-2.808 1.165-3.564.643-4.413.434.807-3.469-2.788-2.242-4.442-1.494-2.685.06-.076 2.391-1.088 1.974 2.637 2.271-.356 3.289 3.012.269-.893 1.808 3.292 1.346L842.6 380zm3.834 886.672l-1.965 2.871q-2.631.482-5.27.936l-.271-1.927 1.587-1.971h-1.863l.276 1.971-.024.03-2.385.733.836.029-1 .348-4.9.895-5.668.824-3.236.357-3.173.253-2.613.48.641.191-.608.348 3.1-.3 5.341-.824.536.09-.907.21-3.34.462-1.819.138-3.73.581 4.281-.51-6.86 1.005.164.029-.553.09-.362.348-.691.1q-8.852 1.058-17.789 1.822l-19.7 1.315q-4.878.236-9.781.38l-.385-1.66 1.212-1.97h-1.67l.458 1.97-.7 1.12-1.788.166 1.059.057-.2.38c-.132 0-.263.01-.394.013l-.706-.037-.592-3.669h-1.154l.035-.258-1.76-.448 1.328-.733 3.1-.057.09-.658 1.893-.286 2.7-1.524 2.61-.866 2.043-.9.834-.9 2.015-.671-.537-.91 2.848-1.438-1.238-.61.1-.7-1.028-2.328.848-1.2 2.715-.714-.446-1.614-1.269-.8 2.162-1.386.791-1.376 2.207-1.481.149-1.419 3.013-2.11-1.238-1.672 2.19-1.138.119-1.329-.52-1.571.833-1.686.286-3.41 2.28-1.9.82-1.838.924-1.886-.642-1.824.15-1.91.909-2.005-1.3-2.571-.551-2.315.118-2.081-4.309-1.538-2.952-.524-2.849-1.672-4.383-.914-4.385-1.3-2.921-.314-5.92-1.329-4.428-1.824-4.459-.315-5.979-1.914-5.919-3.091-3.79-2.424.7-2.377-3.012-3.314-1.565-2.515-3.012-1.719-1.566-1.762-3.026-2.648-1.581-2.643-4.607-3.634-4.7-8.31-3.072-2.915-4.607-2.138-1.61-3.363-3.057-2.586-3.058-2.091-4.621-1.781-3.132-1.685 3.087-1.706-3.176-3.2-4.863-3.091v-2.543l7.889-2.214 4.579-1.7 3.042-.852 1.535-3.02 1.477-1.971-3.788-.229-.8 3.067-3.8-3.376-3.147-1.286 8.5-.9v-3.166l-8.533-4.425.791-.823v-1.776l4.2-2.075.1-.289.7-4.455 11.718-3.546-1.7-3.159 4.217-.392-.9-3.128 3.427-3.562 5.8.227 2.521-4.263 3.329-3.061-3.3-2.607 1.713-3.758-.889-3.871.016-.484-.713-4.932.76-3-3.068-3.225-3.9-3.289-2.292-4.462 2.368-2.4-3.082-.126-2.293-3.3-3.873-2.1-3.068-.165-2.382 3.075-3.1 1.717-3.918.945.7 2.619 3.872 2.74-4.692 1.567-3.918.32-.667-4.4-4.648-.364-2.277-2.681-4.6-1.688-4.617-1.038-2.353.989-2.263-2.129-4.6-1.1.85-3.73-2.961-2.861-5.238-3.225-2.2-2.833-3.2 2.164-1.427-1.431-3.082-1.1-1.321-3.366.865-3.182.137-3.273-7.29-6.257-6.468-6.955-2.855-3.822 3.052.49-2.854-3.85-1.549 1.78-8.944-1.509-4.328-2.784-3.735-.7-2.066-2.42-4.282-2.862-4.4-.882-4.3-2.192-4.207-2.954-2.642-3.361-3.417-3.5-5.284-6.789-3.325-2.876-3.463-2.193-3.508-1.644-4.266-1.1-4.48.927-5.148.7-9.536-5.481-4.783-2.1-7.775-6.62-4.024-2.056-3.811-3.381-3.888-2.677-3.858-2.774-4.16-5.083-2.931-3.909-2-.717-4.511-2.357-4.935-4.065-1.988-4.447-3.417-4.263-4.191-3.895-2.354-5.417-1.777-5.209 3.007-.989-.865-2.619 3.082-1.78.577-2.755-2.065-3.118-.061-2.59-5.549-12.273-1.935-5.472-4.279-8.22-1.032-5.876-3.9-4.272-2.217-3.467.537-2.062 1.835-2.167-.875-3.648-1.61-.839-.861-3.572-2.726-5.443 1.187-4.153-3.5-2.676-3.686-11.735-.225-5-.877-4.62.409-3.019-.126-5.02 1.172-3.486-2.02-2.781-1.213-3.224-2.219-.539-2.612-4.129-1.426 2.439-.763 3.753-.226 4.062-1.681 3.052.523 3.691 1.794 3.572.847 4.558 1.426 4.963.918 4.647-.226 4.725 1.766 4.2.832 5.276 1.964 5.872-.085 4.71.989 5.263-.735 2.719 1.4 3.929-1.384.767.734 4.3 2.669 1.423 3.093 10.1-4.83 2.1-.847-6.624L461.46 878l-1.85-4.9-1.977-4.2-3.657-4.41 2.344-1.867 1.144-4.1-.411-5-2.527-3.838-1.313-3.934-2.514-1.5-1.949-3.586-1.568-2.6-.17-3.334-2.131-4.543 3.247 2.8 3.178-.5 1.1-3.452-2.231-7.863-1.78-5.272-2.415-3.248 1.187-5.034-1.2-1.586 1.233-3.433-1.131-3.258.749-2.048-.4-3.614.339-4.068-.254-5.3.665-4.71v-4.348l-1.6-4.544-1.752-1.243.622-3.019-1.738-1.224-2.019-3.277-2.415-3.571-3.248-4.167.134-.162 1.648-3.847-.663-5.92-.127-4.665-1.187-4.557 1.384-1.643 1.611-3.334-1.625-1.315.1-3.571 1.285-3.634.989 3.586.48-4.289 1.384-.659-1.186-1.957-.989 1.974-2.006-2.541 1.7-2.3-.862-3.542-.155-3.961 1.355-3.528 1.427-2.66.282-3.528-.367-3.2 1.073-1.943 3.248-2.944 2.542-3.588 1.469-4.513.424-3.483 1.921-4.155 3.728-3.648 3.361-3.856 2.64-3.572 2.331-3.857 2.67-2.631 1.563-3.466 1.624-2.6 3.023 2.556-2.26-3.781 2.6-5.665 1.468-4.65 1.116-4.02.594-2.466 1.553-1.615 1.964 4.678 2.555 2.153 1.117 3.842-3.687 1.853 2.486.075-.5 1.569 3.389-3.049.72-4.29 1.4-.717.651-3.637.115.014.161-4.729 1.94-2.964.948.046-.94-5.566-.507-4.379-.328-4.395-1.4-4.276-1.834-3.617-.731-4.917 1.895-2.376.462-3.738 2.087-4.379-1.029-4.185 1.67-6.009-.328-3.6 1.775-4.8 3.339.135.776-2.511 4.145-2.361-3.086-.929-.163-3.512.88-3.542 1.74-3.831 2.341-1.943-1.4-1.539-.268-2.661-1.567 4.066-2.31 5.41-3.7 3.886 2.517-4.08v-3.5l-.459-2.72 1.55-3.006 2.685-2.66-1.85-1.046 2.894-3.708 3.5-.582 1.134 3.558 1.073-3.409 1.343-3.109-2.863 1.346-2.953.075 2.819-2.677 2.758-3.916 2.43-1.838.112-.15 1.961-3.452-3.3 2.108-1.193-1.51-.641 4.08-3.385 3.154-3.34 4.5-4.414 4.214 2.8-5.007 2.55-4.185 1.238-4.678 1.281-4.1v-3.8l2.238-4.02 1.357-4.753.089-3.962 3.266-3.393-2.968-.3-1.013-2.96.134-4.169-1.774-3.035L501 490.59l.254-4.379.984-4.753.939-3.3-1.148-2.525.209-3.363-4.28 3.318-4.5.867-1.06-2.616-3.444-.509-3.429-.866-1.73-2.885 3.1.089.775-2.406 4.444-.7 4.636-2.377 2.341 6.518h3.162l-.85-6.757-3.668-1.584-3.28-.284-4.175.865h-3.788l-2.655-.76-2.892.672-.537 3.213-3.742.224-3.012-.208-3.43-1.63-3.907-1.375-3.609.075-5.608-3.754-3.415.6-1.729-2.332-2.326-2.347-1.551-2.75-2.088-1.151-1.475-2.435-2.639-1.884-2.655-2.8 1.893-1.614 3.237 2.182 2.042 2.78 3.326.539 2.177 2.346.954 4.645h9.818l2.871 1.861 3.456.6 2.841.887 4.5-1.818 4.4-2.061-.942-1.561.242-2.491-2.613.473 3.47-4.069-.529-4.6-1.471-1.273 3.1-2.592 2.585-.358 4.326-3.578-3.3-1.232-.114-2.634 3.114-2.9 3.841-3.422 3.885-2.534 3.3-3.507 5.212-.458 3.927.5 2.614-.5 2.013 1.4-1.885 3.364 3.456.845.928 3.249 4.042-.9 3.213-2.677 3.341-.586-.083-.175-1.416-1.8-2.142-1.289 1.171-3.163-.7-3.164 1.414-4.251 2.684-1.747 2.628.072.828-2.634 1.385-1.876 3.256 1.59 1.928 2.147 2.028 2.09.044 2.1-3.414 1.317.2 4.037 2.842.086 3.2-3.007 2.655-3.357 4.056-2.476 2.528-3.707 2.913-2.949 4.127-.7.714 2.448 1.385 2.619 3.127.23 3.942-.416 3.584 1.332.985 2.219 3.813 1.861.815 2.806 4.327 1.2-.957 3.593-1.885 1.819 1.071 3.692-2.528 3.365 1.815 5.124-.715 3.994 1.242 2.691-.642 3.107 1.771 1.832 1.3 2.334-1.328 5.712 1.642 3.163-.343 3.579-.913 3.565.2 3.907 3.17-1.976 3.542-.243 2.128 1.489-.057 2.634 3.27-.143 8.683 1.76-2.142 3.064 2.8.645 4.77-2.434-.872 5.1-2.313 3.779.629 2.376 5.5-1.946-3.484 3.636 1.385 1.689 3.884-1.99 3.485 2.649.171 3.965 1.714 3.808 1.828 3.478 3.385 2.463 1.913 3.635-.713 3.737-3.229-.6-2.442 1.933 3 1.76 2.242 2.848 4.6.931 4.413.631 1.571 3.148 2.256 2.662 2.842-2.619-2.1-3.307 3.555-1.417 8.441.8.77 5.3 3.3 4.167 2.641 3.478 4.7 3.12 4.157.544 2.17-4.394 3.085-1.918-3.242-4.667 4-1.589 3.513-3.236 2.743 5.068.756 5.167-5.155 1.747-.032.177-1.411 4.246 2.186 3.379 2.427-3.478 1.085.114 4.242-3.193.114-4.222 3.142-2.778-3.7-4.423-1.257-5.34 3.055-3.807 2.714-3.708 2.913-1.331.43-1.127.183-.006 2.341-4.5.73-4.662-.246-.214.075-.342.429-3.264 2.2-2.862 5.071-.129 4.27 2.147 1.927 1.9-1.77 1.661-2.571 2.792-2.485 2.877-2.914-.645-2.769.73.37 2.806-2.627 2.091.414 4.252 1.157 3.75 1.271 3.006.486 4.252-4.2 2.605 2.628 2.648 2.257 8.131 4.47-4.767 1.885 4.466-.799 3.361-1.484 3.923 2 5.181 2.8-1.016.671-3.307 4.055-2.276.872-4.667.614-4.7.772-3.99 3.756.457 3.842 1.719.142 2.791 4.3 1.431-.571 5.025-3.769 1.734-.529 4.064 3.926 2.392-1.371 4.695-4.754 3.063-4.285 2.992-2.925-1.228-1.923-2.837-.721-.043 1.1 2.232 1.545.648.169.25-4.656 5-.845 4.121-7.377 7.381-5.673-1.034-3.768 4.294-.731 4.207-8.265 1.236-1.189 4.121-3.051.717-3.037 3-3.295 3.647-4.2 6.361-1.876 4.811-1.289 4.165.386 3.777 3.124.057 2.75 1.365.444 5.384-.932 3.461.6 3.906-.73 2.8 3.037-.775 3.825-.718 4.011 3.733 4.4 2.312 3.81 3.59 2.106 4.078 3.008 1.968 3.84 1.967 4.4 4.294 10.028 1.135 3.953 2.57-1.977 6.462.063.132.854 3.673-.372 3.591-1.289 4.322 3.165 4.006.938 1.872-2.51.962 3.072 1.823 1.716.829 1.211 1.522 1.533 3.834 3.524 3.16-.244-2.945 4.77-2.756 3.4-4.279-2.001-4.524.229-4.409-.186-5.141-1.1-3.762-1.479-3.688 3.983-2.011 3.969-2.815 3.925-3.475 2.606-3.618.158-5.86-1.776-8.773-1.376-5.084-2.65-1.579-2.577-2.973.572-2.829 3.037-.661 2.421-3.475.128-3.618-.529-4.323-2.092-2.225 1.589-3.548 1.219-3.475-2.349-2.212.172-3.589 2.821-2.04 4.1.791 3.767 1.492h2.778l4.785-1.492 3.166 2.067 2.907 2.815 3.268 2.011-.917 2.871 3.337 2 3.238-.173 3.282.474-.432 3.647 1.412 3.533v7.6l.236 2.96 2.46 3.6 2.568.508 3.418 4.933 4.132-2.7 1.083-3.125 2.944-2.631 1.27-3.991-1.784-2.75 1.4-2.45 1.636-3.229 4.593 6.86 3.162 4.051 2.539 4.155 2.919 4.1 2.7 2.542.555 3.033 2.619 1.824-1.335 3.3.81 4.47 2.445 2.6 4.214 1.5 1.528 3.617 5.136-.358 2.16 2.705 4.43-.284 2.824 1.675-3.216 3.886 4.877-.344 1.231 3.571 3.539-.91 4.27 3.6.108 3.976 3.052 5.546-4.469 6.7-4.825 1.958-3.754 3.259-1.459 3.542-1.584 3.453-2.01 3.557-4.8.972-3.784 1.569-2.866-1.075-6.694 1.128-3.019-.277-3.863 1.316-6.621.867-3.824 2.048-1.944 3.288-.5 3.961-3.646.359-3.351 4.125-2.972 3.408-3.73 7.25-2.2 3.2-1.715 3.184-2.243 3.272 3.756-1.791 2.215-3.215 2.135-3.305 2.107-3.974 3-3.407 3.513-2.647 3.054-1.793 3.444-2.706 7.972-2.571 3.809 1.047 2.082 2.032.376 3.035-2.89 2.764-2.581 1.943-5.538.689 4.161 4.155 4.511-2.2-.5 4.008 1.08 5.276 2.474 4.334 3.5 1.077 4.688 2.362 3.943.088 2.816-1.868 4.729 1.28-.48-3.037 2.746-2.778-4.239 1.363-.1-.654 2.23-4.291 1.205-4.2 1.644 1.272.328 4.662 4.27 2.229-2.824 3.7-3.056 2.212-.5 3.212-4.549 2.44-5.48 3.3-3.62 2.929-2.932.448-1.592 3.319-2.622 3.558-2.677 3.452-3.228-1.928-1.393-3.753 1.109-3.977 3.149-3.586 2.227-1.795 3.529-3.691-3.785 1.39.162-3.214-4 3.724-3.769 1.971-4.391.51.284 3.139-2.757 2.629-2.849 1.766-3.352 1.9-1.594-1.448-1.782 4.063-3.393 1.838-2.944 1.69.082 1.572-1.851 3.2-1.393 3.228.594 2.306-1.431 2.39 2.107 1.372 1.244 3.829 3.121-.21.039.748-4.123 1.831-.066-1.571-2.514 1.719-1.649-2.238-.958 3.105-3.1 1.719-6.295.21-3.134 1.662-3.149 2.376-2.066 3.077 2.12 1.543-.014.209-1.039 4.439-2.094 4.634-3.256 3.062-1.621-3.048-2.135-1.586 1.014 4.634 2.742 5.367-1.649 2.3-2.2 3.857-1.162 4.586-1.675.72 1.176-4.592 1.08-3.04h-2.189l.553-2.308-2.673-1.614 1.093-3.767.028-1.351.372-3.033-3.026 1.524-1.209 3.033.508 4.62.52 3.062-3.622-.819 4.25 3.139-5.534 3.852v3.039l7.845 3.167 1.238 3.048.551 3.872-1.863-.853-2.475.795-3.177 1.4 1.7 4.619-2.443 3.8 3.787.071-1.939 2.257-4.5.629-3.2 3-3.3 2.9-3.25.595-3.922 2.11-2.043 2.991-2.684 2.866-4.011 2.767-4.011 2-4.119 3.545-4.443 8.7.357 4.543.463 4.543 1.744 4.62 1.06 4.558 2.519 4.648-.134 2.929 3.623 10.63-.224 5.11-.953 5.129-2.267 4.243-2.147 1.257-3.46.524-1.238-3.767-3.34-3.171-1.818-4.558-1.849-3.872-2.521-3.153-.462-3.067 1.581-4.286-2.744.538.209-3 .879-3.586-.983-4.577-1.938-.986-2.983-5.529-3.1-3.305-4.012.252-3.445 1.858-4.025.209-1-3.829-3.788-2.048-2.37-2.6-7.978.357-3.907-.609-.969-3.243-2.207 1.9-3.8-1.376-3.251-.567-4.16 1.51-3.564-2.944-2.445 3.348-.076.153 2.534 1.224 3.342-.272 3.266.6-.91 2.105-2.132 1.062-.193 1.51 3.547 3.619-1.52 1.267-1.686-2.567-2.489-1.181-2.848.91-4.623-.105-3.787-1.586-.194-3.034-3.429-3.719-3.564 1.5-3.728-1.647-3.594-2.286-4.548-.343-3.31-.091-4.175 1.243.626-3.591-2.744.767 1.238 4.153-5.86 3.048-3.936-.329-4.339 1.915-4.325 1.776-3.042 2.139-1.506 4.11.507 4.7-5.9 4.291v7.7l-2.672 2.8-2.054 3.617-2.147 3.577-2.224 11.738-1.977 2.826.695 4.245 3.661 3.714-1.854 2.19.865 3.6 1.652 3.073 2.349 3.233 1.5 4.35 1.622 3.732 2.409 3.908 8.169 4.5 2.5 3.144 2.842.636 5.235-.11 5.111.362 5.252-.888 5.05 1.691-.139 1.219 5.2-.26-.494-2.04 3.105-1.387 3.026-.791.355-3.228 1.777-2.287 1.065-3.132 1.3-4.381 3.011-.83 8.788.181 4.494-.653h4.4l3.6 1.166 4.356.609 2.069 1.621-.294 3.215-3.984 2.773-1.853 3.688-3.289 11.862-2.564 3.493-1.946-3.449-1.267 6.223-.323 3.784-2.672 4.712-4.68 1.775 3.66 1.855 3.537 2.429 5.452-1.1 5.158 1.912h4.556l4.617-.693 4.5 1.219 4.586-.155 2.95 1 3.8 1.016 3.661 3.52 3.69 1.55 1.5 1.413-.247 5.573-2.456 2.871-.355 7.9-1.745 4.058-.155 3.6-1.606 2.857 1.375 3.144 4.447 6.307 3.861 2.676 3.893 2.08 1.42 3.065 3.953.305 3.074 1.952 5.59-.791 9.483-1.744 2.394-2.191 4.725.221 3.845 1.29 3.969.79 3.954 2.438 6.208 4.823 3.969 3.524.031 2.935 3.818-3.062 2.3-3.124 1.625-.572v-4.149l.7-3.591 2.152-2.384 3.6-1.225 3.513.565 2.136-2.424 5.747.507 4.259-1.916 2.812-1.9 3.569-1.284 2.109-2.576 2.783-1.948 2.908.538 1.391 1.773-2.081 3.1-4.258 1.423 2.194 3.551 1.489 2.985-2.107 2.464-2.109 3.662 2.179 2.272.716 2.958 5.032-1.441v-12.5l5.132-1.419 3.789-1.51 3.668-2.138-1.506-3.167 3.654-2.181 1.655 5.11 3.8-.253 4.535.286 3.741 1.629.91 3.167 1.506 2.4 5.322-1.091 5.236-.49 3.772-1.005 3.7-.4 1.6 1.748 3.819-2.389h5.231l4.447 1.355 4.338-3.81 16.31-2.438-7.321 2.452 3.059 2.063 3.174 2.7 2.907-1.077 3.792.586 5.216.386 1.687 3.486-1.316 4.6 6.608-2.4 5.25 1.482 9.065 3.167 1.639 2.691-.565 3.2 3.577-1.348 4.5 1.433 3.069 1.139.2.138 2.105 1.743 5.1-.538 4.371-1.057 4.324-1.72 4.337-1.109 4.357-1.6h8.214l2.879-.133 3.653.133 4.352.538 3.687 1.357 4.352 1.048 2.879.9 4.352 2.171.138 4.02 2.907 3.705 1.535 4.081 4.888-1.062-.608 5.263-3.506 4.486-2.775 3.062-3.548 3.363-1.369 3.691-.807 3.976 5.012-3.167 2.057 3.629 1.4-4.753.029-2.654 3.549-2.776 4.19-.881 4.177-1.962 4.812-.643-1.368 4.829-1.449 3.2 2.057.3 2.8-5.8 2.822-2.047 4.77-1.762 4.713.342 4.052-.466 5.417-1.12 1.325 1.629 4.043-2.719 1.221 2.153 1.925 1.776-1.388 3.677 4.651-2.944 4.01-3.271 3.924-1.229 3.863-.176 3.891-1.767 3.8-.238 3.848-1.824 3.863-2.915 3.8-1.867 3.7.253 7.26.257 2.314.8 2.37.69 3.549-.452 2.252.69 3.578-1.481 3.639-2.6 4.053-1.362 1.449 2.467 1.624 5.548.176 2.614-1.1 4.23-4.414 7.815-2.161 3.353-3.383 4.076-2.209 3.348-3.92 3.829-2.057 2.362-2.926 4.02-2.371 3.662-3.725 4.71-3.549 3.81-4.043 3.615-1.444 3.738-1.255 2.824-.118 2.2-.718 2.467-.161 2.152-2.029 3.377-1.582 3.124-.817 2.348-2.908 2.719-1.415 2.572-.865 2.257-1.525 2.539-4.471 3.962-2.057 2.7-4.5 3.839-2.148 2.662-3.861 3.75-.969 2.048-8.11 5.353-.822 1.657-3.6 1.629-3.753 1.929-3.639 1.586-3.492 1.271-5.069 2.377.641.729-3.668 1.523-4.024 3.125-2.147.376-4.894 2.914-4.024 2.034-16.044 10.568-2.147 3.824-.357 1.362-1.553 1.748-2.205 1.943-5.877 3.138-7.425 4.62-2.133 1.719-6.813 4.1-12.2 5.5-2.105 1.462-3.981 1.943-4.2 1.705-1.221.852-3.625 1.467-4.028 1.448-3.711 1.076-4.666 1.062-4.309 1.181-3.924.686-2.057.105-3.844.859 3.383-1.333.3-.643-2.846.553-1.088-.286 2.622-1.257-1.848-.043-5.515.719-.746-.362 1.743 2.862h3.027l.973-.21-3.463 1.192-1.848.809-8.262 2.148-4.86 1.138zM722.85 768.638l-9.081-.5-2.386 2.167-2.789-1.034-4 .524-2.491 2.872-4.757 1.91-3.951-.386-3.1 2 4.385 2.782 3.981.376 4.056-.391 4.234-1.986 4.086-1.286 4.727-2.033 4.071-2.1zm-3.593-8l-2.431 3.767 3.325.943 4.592-1.272 3.892.167 3.893.867 4-.643 4.473-1.5-.477-4.648 1.178-3.053-3.936 1.424-2.252 2.272-4.445-.867-3.354.61-4.443.657zm-28.183-23.3l-5.278-.626-2.58-1.077-9.812 1-1.581-.241-2.549 2.706-5.5 7.026 5.309-2.348-2.192 3.6-.984 2.948-1.958 5.243v7.52l-2.486 5.32 1.551 4.948 2.833.433 2.983-1.061 2.1-2.867.739-5.173v-4.681l1.14-7.787 2.162-3.631 1.625-3.722 5.129-1.643 2.7-4.35 3.19.388 2.5 1.883 3.043 1.929 1.3 3.212-.552 5.368-3.757 4.257-.343 3.143 3.042-2.843 3.444-1.148 2.476 9.564 4.7-1.915.432-5.467 2.028-4.487 1.417-3.705-.866-3.243 3.487 4.189 5.354 2.693 2.356-2.934-2.923-5.662-2.908-4.858-5.77-1.929-4.131-1.209-4.264-.4-4.176-1.181-3.16-.343zM641.838 722.2l3.041.657 4.5-1.45 1.79 4.336 10.08-2.843 5.263-3.048 3.057.5-4.638 2.433-.521 4h4.265l2.012 3.146 4.131.626 5.576 3.988h5.279l-.283-3.3 3.131.372-1.088-4.051.969-3.722-1.745-2.555.4-3.124-4.577-.6-2.118-3.379-1.313-4.872-4.964-.747-4.072-3-2.549 2.689-4.34 1.6-2.609 2.735-2.908 1.826-4.309.671-3.654 2.5-4.129 2.272zm-38.531-134.108l-1.581-2.437-2.281-1.061-1.193-3.094-1.924-.942-3.847 2.392-3.1 1.016-3.788 1.465 3.191 2.556 2.849-2.063 3.667.15 3.952 1.883zm11.273 82.987l2.073-3.438-2.4-1.524-3.116.642.969-5.425 2.043-1.765 1.013-2.885-2.371-3.99-4.607-1.585.089 4.932 2.878-1.464 1.342 2.885-2.057 1.749-1.551 4.365 2.252 3.183 2.3 4.738-.983 2.99.82 3.468-1.388 2.764 4.311.554-.18-4.125-1.058-2.751zM625 656.162l.164-4.769-2.744-1.6-2.908-.9-2.534 3.258.671 3.423-.209 4.769 1.863 3-.939 2.9 3.951 1.181-.908 4.559 3.1-.658-3.146 7.1-1.134 3.736 3.639-.613 3.116-5.59-1.133-4.244-.627-5.859.075-4.8zm-9.875-38.5l-2.728 2.317 5.025-.6 2.983-7.116 3.5-1.18-.433-5.008-5.994 5.112-.046 4.1zM593.5 511.607l-4.145-.239-2.983-.344-4.934 2.885 3.965 3.079 2.476-1.928 4.488-.554-1.581 2.691-4.368 2.466 7.813-.493.835-4.409 3.43 4.021 3.31-2.258 3.086-1.659-4.324-1.928-3.205-3.259 3.458-.314 3.654-.224-1.834-3.049-5.4-.21-4.414-1.4-4.175-.881-4.9-.613 3.981 2.7 4.726 2.3zm-14.684 42.644l1.537 4.664 2.578 1.555 3.744.4 1.341 1.63 2.267-2.2 3.757.33 3.415.194 3.937-3.079 4.1-.434 4.242 1.226V556l4.094 2-2.759-2.96-2.58-1.3-3.622-.239-2.4 1.315-3.4 1.69-2.669-.643-1.686-2.721.164-2.556-3.832-2.242-.507 2.362.164 3.707-2.937-.9-2.013 2.331-3.012.853zm175.937 727.338c-1.888.02-3.777.036-5.669.036a534.509 534.509 0 01-60.322-3.4A535.432 535.432 0 00752.3 1282c.853 0 1.7-.012 2.554-.016zm520.746-495.3v1.231l1.665 2.565-.523 5.443.794.2q.448-5.284.8-10.6zM1194.9 462.122l-3.3-2.921 10.974 15.182q-3.754-6.183-7.674-12.261zm87 310.6q.132-3.447.221-6.9l-2.986-.2q-.082 2.87-.191 5.732zM731.393 288.248l1.078-.883-3.479-.869-.821 1.676zm24.836 989.495h1.036l.038.073.916-.009-.567-.019 1.178-.045zm309.579-952.394l3.458 2.167.916.363q-3.393-2.547-6.828-5.04l.7.612zM486.146 629.65l.546-.833v-.1l-.82-5.53v-5.022l.835-5.352-1.864-3.691-2.46-4.186-1.253-4.29-2.356-.208-.805 5.544 2.087 8.1-1.684 1.569 1.267 3.2.253 3.259 1.939 1.659-1.327 1.868 1.659 4.363 1.445 3.2 2.808.33.111-.623zm267.266 648.2l-.007-.02-1.255.032zm524.018-482.121c-20.381 240.082-199.938 434.647-432.455 477.218l-.754 1.1c234.636-41.029 416.19-236.365 436.229-477.568zm-466.488 482.339l-12.01 1.3-22.084 1.543c-.625.032-11.642.532-11.642.532l.094.4a532.8 532.8 0 0074.534-7.036l-.129-.921q-13.512 2.333-27.249 3.975zm-48.786 3.831l.785-.014.22-.414-.377-.02c-.233.006-.466.008-.7.013zM714.7 675.988l1.907.92-1.089-3.856-2.251-1-.845.324 1.011 2.019zm112.636 57.1l-.493-3.185-.313.1-3.62.552-3.91-.94-.936-3.065-1.24 2.512 2.385 2.017 4.029 1.765.849.23.292-.194zm-136.9-238.139l.782-3.566-2.632-2.283 4.011-2.81.1-4.289-3.265.821-2.819-1.614-3.16.419-1.7 2.331.387 4.321-3.489-1.571-2.818.3.238 2.706-.715 3.169 2.744.971.983 4.1.641 4.663 4.34-1.689 4.141-.158zM257.264 669.375l.462 1.077.655.612.388-3.378-.477-.7-.1-1.585-.284 2.377zm1.206-17.742l-.77 2.767.476 2.721 1.089-4.573zm1.03-11.943l-.85-.254-.3 2.033.193 1.45 1.179-1.54zm1019.446 131.662q-.159 4.071-.385 8.126l-1.15-.868-.328 1.105-1.589-4.41v-2.844l-.265-9.07-.492-.526-.469-1.108-.422 2.085-.423-2.657-.408 2.615-.4 3.183-1.715 10.617-.682 3.156-1.063 1.535-.775-3.29-.976-2.774-1.179.484-1.007 2.015-1.035 3.635-1 4.193-.98 3.127-.914 3.7-1.049 4.645-.232 3.765-5.451 21.342-.9 4.221-1.75 1.9-1.44 2.513-2.274 3.43-1.472 3.025-1.207 3.053-1.722 4.076-1.82 4.058-1.091 4.617-1.894 4.1-1.5 5.142-1.471 1.9-1.88 1.824-2.419.67-2.08.731-1.811.19-2.316-.437-2.911 1.578-2.057-.336-2.256 1.169-2.317 1.14-2.609-.559-1.137-1.94-.873-2.35-.961-2.965-1.94-.968-2.373-.54-2.172.6-1.69-1.518-2.071-1.037-2.14 1.107-1.416-4.221-1.745 2.909-4.634.95-.993-4.119-.511-3.946-1.425-3.649-2.112-2.206-2.433.438 1.453-3.975.306-4.295.66-4.645-1.444-4.76-.729-8.894-.831-3.974-1.207-3.565-2-2.685-2.758-1.87.613-4.077-1.207-3.421-.116-.158-2.962-.917-2.781-.232-2.071-8.079.729-3.476-.157-4.3-.962-6.092-.2-4.221.056-5.771-.373-5.263-.927-5.544-.746-3.962-1.1-4.484.119-3.107 1.088-4.4-.223-3.691-1.193-4.5-.328-4.739 2.538-4.439 1.487-5.262-.461-4.722 1.088-4.844-.252-5.037-.58-4.737-1.61-5.382-2.286-1.106 3.761-5.859v-3.439l-8.44-4.214-1.506-2.3-.167-4.424-.907-4.574.342-4.261.941-4.1.119-5.232-2.623-8.146-1.658-3.631-1.834-4.62.926-3.019 2.324.942 3.387-1.18.642-2.661 1.61-3.348.58-2.661 2.608-1.346.675-3.138.161-5.053-1.135-3.156-3.786-.252V598.6l3.638-.178.894-4.335.626-4.007-.071-3.542.76-2.571.105-2.66.831-3.034 1.255-2.467 1.3-.762.167-3.079-.884-3.648 1.749-2.9-.523-3.17 1.639-2.929-.076-3.124-1.055-3.557-.09-3.049.789-2.167 2.922 1.494-1.012-4.9 2.19 3.632.746 2.691 3.249 2.407 1.107-.853 2.233 1.884 2.091 3.722 2.565 7.354 2.219 1.988 1.135-1.3-.209-2.81 2.219 1.539 1.554-1.808 1.059-1.793.223-3.633 1.088-6.5 1.283-1.824.836-2.271 2.457 2.78.94.046.252-.061 1.15-1.42.285-2.869.565-3.722 1.3-1.974 1.373-.972.091-2.39-1.046-3.229-1.4-3.273-.171-.092-7.07-8.572-2.565-5.592-1.312-4.065-.912-3.6-.252-3.258.224-2.317 1.91 1.57-.224-2.736.057-2.392-.774-3.243 1.672.732-1.211-3.6-1.055-5.635.119-1.42-.076-1.913-1.06-3.228.062-1.959-1.387-3.169-4.547-8.236-1.644-3.557-1.116-3.17 1.758 2-.252-1.525-1.882-2.376.333-.673-4.086-7.877-2.371-3.228-3.192-4.006-15.032-16.591-2.25-1.628-3.354-2.69-2.133-2.153-1.222-.464-2.641-2.944-1.074-.568 3.074 3.781.851 1.63.384 2.331 2.761 3.409 2.921 3.827.97 2.062 1.848 2.825.242 1.823-1.178-.1.266 2.751.76 2.6 2.523 2.6 2.789 4.9.085 1.868-1.055 1.615 1 2.975-1.639-1.973 1.625 5.127-2.328-3.14-.718 1.047-2.023-1.929-.271 1.436-.223 1.779-1.967-1.838.907-.629-.879-1.645-1.15-.223-3.2-2.078-1.672-1.854 1.639 4.47-3.406-3.17-1.663-1.179-2.5-3.394 1.164 2.78-1.52.24.19 2.451.115 2.436v2.078l2.75 2.287.536 2.466 1.221-.149 1.673 1.943.508 2.481-1.957.658 3.52 2.989 2.148.224 1.6-.224 1.743.688 1.06-.6.522-1.315 1.758 1.031.48-1.33-.271 2.2 3.312 2.691-1.359 1 .166 2.616-1.534.209 1.131 4.215.166 3.453-2.119.119-2.67-.628-1.772-.283-2.266-.314-1.255.941-3.012-2.346-6.172-5.441-1.3 1.3-1.82.912-1.345 1.66-2.46.912-2.49 1.628-.418 2.392-1.563.03-1.582 1.569-2.133-.637h-1.625l-2.741-2.457-2.21 1.51 2.162 1.972 1.074 6.735h-1.668l-2.252-5.673-1.625-1.913-.627 1.913 1.52 3.5-.118 1.884 2.147 2.018 1.715.045 2.162 2.406 2.176 1.255 2.238-.358 1.714-.717 1.682-1.151 2.7.851 2.67 3.7h1.582l1.6-3.255.933-1.615V492.8l2.617 2.826.969-1.644 1.415-1.7 2.727-2.571 2.267-.538 2.09 2.481-.4 1.226-1.938-1.136-.328 2.107-.908 1.226 2.039 2.87 3 3.318 1.373-1.3 2.461 2.078 1.088 3.393 2.37 2.062 1.492 2.975 1.426 1.985-.53.167v.59l-1.285-2.081.439 1.9-2.363-2.906-1.473-2.541-2.447-1.705-2.447-.837-1.953-1.24-.983 2.512-2.461-.793-.565 1.181-1.554.837-2.071.418-.133 3.259-1.673 1.181-2.727-.089-2.741.328-.223 2.422-2.167-1.361-2.831.284-2.8-.971-3.236-2.138-.865 2.316-1.311.673-.864 1.914.712 2.809 1.972 2.96.522 3.588 1.041 4.125 1.729 3.782-.118 3.244-2.205 1.36-1.3 2.706-1.791 1.763 1.012 3.378.76 4.155 6.846 5.412.789 3.856 7.541 4.828v3.736l-7.742 3.155v.268l16.055 31.957 1.653 5.681 1.492 4.394-4.024 8.76-1 3.407-.37 3.6.879 5.276-2.209 1.345-5.2-2.571-2.67.762-1.178 2.033-.28 3.124-1.91 1.808-1.283 3.439-1.653-3.678-2.594-3.407-2.39-3.782-1.207 1.928-2.489-1.077-2.414-3.765-.883-3.827-2.889-4.335-2.3-4.08-2.085-3.229-3.283-2.557-2.086-1.838-2.176-3.154-4.489-2-.76-2.751 1.13-3.108-1.591-4.185 3.411-1.676 1.672-2.958 1.354-3.842 2.238-2.84 2.523-1.9.817-4.843 2.223-3.273 1.715-2.078.433-2.841-.889-2.457-3.42-4.448-2.475-2.87-7.022-7.623-3.151-1.375-2.5.7-2.072-.388-1.477-1.824-2.908-.194-1.416-.269-1.805 2.347-2.774.941-1.012 2.094-1.967.716-3.461-2.687.67-2.853-.133-3.065.76-3.214 2.8.568.7-3.258 1.017-2.406-4.219-2.721-3.967-1.464 1.012-2.408 3.268 1.361-1.211-12.6-.5-2.6-2.8-2.57-2.076-2.452-.432-3.243-.936-4.006-.523-3.2-1.881-3.364-2.01-2.975-2.181-2.676-2.8-2.689-.327-1.719 3.624 2.436 1.625-.822-1.415-2.885-1.82-1.2-.969 1.256-3.076-2.016-.727-3.065.746-3.556-1.6-2.438.475-2.586 1.582-1.165-2.4-1.779-1.606-2.735-2.076.164-1.074-2-2.67-.195-3.772-2.182-2.205.762-3.249-1.5-3.82-2.153-2.442-2.017-1.687-2.541-.3-3.034-2.371-2.8-.342-2.66 2.566 1.3 3.159 2.586 2.537 1.345.238-2.109 2.532 1.331 1.031 3.109 3.625 3.633 3.634 3.362 2.167-1.12 1.876 1.076 2.281-2.451 2.4 2.062.223-2.242-1.715-2.974-1.088-2.272-.523-2.915-1.819-3.534h2.608l1.15 3.265 1.354-1.555.641-1.614-1.848-4.215-.655-3.483-2.566-3.781-1.444-3.767-.837-3.423 3.345.44.323.009-.223-2.212-1.492-2.482-5.544-5.979-3.967-2.81-3.773-1.256-4.461-1.778-2.727-2.167-4.071-2.661-1.15-2.87 1.611-1.046 2.389-.225.176-1.823-2.309-2.437-7.739-2.6-.181 1.765-3.1-.239-3.296-1.054-2.461-2.855-2.7-6.112.418-2.616-1.107-3.557-2.385-1.839-3.487-3.348.133-2.87-2.76.568 1.4 2.271-2.4 1.585 1.164 3.662 6.323 9.866 1.3 3.168-.76 2.572-1.7.985-1.61 1.765-2.656-.853-4.205-6.7h-.574l-3.659-.88-3.891-2.18-3.513-3.087-4.149-3.129-3.513-2.857-4.094-2.33-1.674-1.91-3.754-.758-1.988 1.5.972 1.733.341 1.6-.259 1.679 2.678 1.612 1.524 1.734 1.863.271 2.691 1.895 1.623-1.2 2.755 2.37 2.673 1.558 2.161 2.735 2.07 2.316 2.647 2.776 5.781 4.591 3.715 1.544 3.715 1.76 3.069.9 4.538-2.127 2.406.162 1.877 1.409 1.945 2.438 1.068-.57 1.971 2.994 2.57 3.3 2.376 1.477 2.407 1.018.59 1.289 2.28 2.078 3.221.762-.821-1.17 2.981 1.711 4.109 3.2v4.144l2.917 3.088 2.285.853-.138 4.225-2.281-1.165-2.987-.378-2.256-1.978-3.052.474-3.607-.677-3.96-.883-.228-.079-3.664-.649-4.227-1.219-1.946.663 2.256 2.141-.189 1.529 2.677 3.806 2.105 2.763 1.339 3.521-1.079 2.306-2.311 1.612-2.054.311-2.918-1.923-2.01-2.777.064 2.56-2.483-.785-2.192-2.275-3.292-.122-3.083-1.368-3.159-1.111-2.109-2.424-2.622-.312-1.984-3.318-2.028-2.979-2.729-3.277-.1-2.953-2.229-2.438-2.958-2.464 2.079-.732-5.862-5.593-4.3-3.412-2.338-3.035-3.758-2.369-3.159-2.113-3.121-1.841-3.2-2.221-3.215-2.926-3.173-1.68-3.934-3.683 1.257 5.133 2.552 3.209-3.2-2.667-1.27-3.306-1.975.705-1.946-2.492-2.622-2.465 3.935 1.545-2-1.91 2.583.46-2.69-2.6-.556 1.083-2.673-.649-1.39-2.546-3.857-2.353-.237-.221-.211-2.333-.073-.2-1.718-2.912-3.577-2.193-2.337-2.235 1.567-1.5-2.837-1.463-1.744-1.748 4.645.705-3.172-2.222 3.121-.134-5.041-2.209.392-2.4 1.162-1.936 1.149-1.788 3.47 2.437.206 2.4 1.7-2.248-.366-2.438-1.972-1.706.405-1.883 2.475.108-.693-2.789-.185-2.6.551-2.3 1.283-1.978 1.136-2.018.473-2.031 1.057-1.89 1.881.81 3.734 2.694 2.55 2.941.245 2.664.791 2.487.508 2.295-.768 2.386.073 2.818-1.813 2.064 3.533-1.078 1.091-1.956 2.193-2.294 11.6 1.093.475-2.756 1.782-2.448-2-3.449-3.959-.277 1.2 2.016-2.139 1.771-3.362-1.324-.553-2.14.524-2.31-.108-2.124-1.336-3.034-3.029 1.171-2.457 1.185-3.993-2.155-3.656-2.494-3.822-1.6-1.077-2.417-.152-1.833-3.6-1.278-3.822.2-.093 1.6-4.453-.554-4.488.307-1.718 2.234-.783-2.8-2.045-2.511.846-1.431 2.401-1.219 2.779 2.511 4.272 1.062-.489-2.14 1.595-1.341-1.982-2.263-3.533-1.679-4.36.479-3-1.8-4.042-2.017-3.514-1.417-3.474-1.939-7.42-2.849 3.289-.909.4-2.093-3.01-.139-2.814-1.74-1.982-2.14-4.331-1.062-3.24-1.278 3.7-1.124-1.273-1.509-2.153.678-2.148-1-2.981-.478-.626 1.679-1.363 1.28.739 2.2-.294 1.509-3.254-.123.23-2.695-1.674-3.3-2.55-2.171-.69-2.494-2.124-1.755-1-2.017-1.948-2.064-.064-1.847-1.013-1.878-4.022.57.753 1.755-1.321 2.048 1.473 1.755-1.825.877-3.368.586-1.013 1.832-2.765.955-4.82-.663-3.475.647-3.087 1.371-7.033 1.384-3.333-.615.524-1.678 2.055-.477-2.319-2.5 1.644-1.17 2.809-.841.2-.082 3.548-.694-.108-2.34L844 286.55l3.025-1.633 2.4-1.477-.955-2.51 3.133-.646 1.967-1.17 4.042-.216 3.656.092 5.755 1.139-1.365-2.647-4.131-.74-4.747-.569-3.5.446-3.023.076-1.535 2.662-2.418 1.33-3.744-.359 4.176 2.123-1.952 2.032-2.685 1.316-3.173.7-.585 1.883.166 1.793-3.743.987-3.041-.4-2.684.628-1.283 1.256 1.026 1.763-1.491.24-.894-2.123 1.568-1.989 2.86-1.015 2.175-1.675-7.013-4.276.362 1.346 2.7 2.227-.494 1.928-2.789-.253-1.088-1.66-2.176.059 2.029 2.408-2.893.194-.865-1.57-2.518-.882-1.853-1.824-1.178-2.331-3.876-.4.314 2.078 2.862 1.7-1.8 1.883-.91 2.616-4.309-.942-4.534-.866-4.146-.315-4.516-.657.06 2-1.15 1.405-3.026.927-3.518.881-8.785.449-3.012 1.166-3.281-.449-5.278.613 1.15-1.48-6.264.269.612 1.66-4.309-.269-.313 2.436-3.3 1.943-3.236 1.584-3.569-1.474h3.318l-3.73-.172.412.17-3.177-.334 2.173-2.543-3.1.091-.622 1.264-3.055.137-3.494-.167-2.9-.6-2.811-1.37-1.322-1.935-.334-2.4 2.4-1.829 3.251-2.27 3.1-1.736 3.22-2.086 2.816-.806.192-.077 1.688-1.889-2.949.076-6.79 1.813 1.959 1.02-1.549 1.25-5.105-1.128-2.629.244.942 1.8-2.933-2.377-2.811 1.113-2.72.716-3.767-.244-3.693.609-.424-1.858h-4.293l-5.379.728-3.2 1.1 2.163 1.041.5 1.485-4.475 1.1-5.884.371-4.622.535-4.877-.906-1.008-2.124.445-2.154-3.571-1.234-3.956-.624-3.143.283-.741 1.841 1.008 1.665.845 1.767-4.06-.549-3.084.356-.4 1.426-1.676 1.159-2.86.341-4.312 2.377-4.223 1.62 3.29.683 2.43.639.267 1.263-3.2 1.618 2.815.446-11.233 4.724-4.757 1.367-3.423 2.243-3.661 1.441-3.437-.936-2.92.416-1.852 1.366-3.29.759-2.178-.7-1.6 1.886-2.134 1.738-1.645 2.614-6.284 4.5-3.245 1.1-.931.03-2.093-1.494-3.977 1.9-2.847 3.05-2.348 3.518-3.419 3.261-3.314 2.6.919 1.525 1.733 1.357-3 2.31-1.625-.618 1.324-1.895h-2.7l-2.8 2.061-2.966.452-.573 1.843 1.191 1.3 3.929-.815 4.64.166-7.034 8.574-1.611 3.232-3.354 2.819-2.53 2.854-3.087 2.61-.825.6-.155.038-7.094 4.861-3.056 3.276-3.645 3.08-3.344 2.522-3.885 1.9-.738 3.4-2.079 4.152-3.931 3-3.93 3.547-1.868-1.479-2.606-.664.482-2.975-4.216 1.013-2.471-.952-3.373.151 2.018-3.186 3.463-3.638 2.637-2.506 3.629-1.163 2.109-2.943-.783-1.57 1.4-2.34 3.78-1.42 3.554-.936-1.866-2.008-3.375 2.159-3.7-.5-.62-.591-.028-.149-.632-.981-1.038-2.174 2-3.261-3.388.438-.979 2.279-2.968 1.087-4.322 1.345-4.5 1.871-3.118 1.706-2.575-1.359 3-2.792 1.521-3.427-.948-1.888v-4.175l-3.523-1.809.567-2.107-1.357-1.838-1.208-1.87-.985-2.137-.313-2.212-3.012-.568 3.385-1.765 3.117-2.137 2.43-2.72.418-2.062-.343-1.779-1.507-1.66 4.086-.313.76-2.317-1.028-1.494 2.55-1.719.865-2.3-2.4-.313-2.207-.554-1.3-1.539-1.64-1.016-3.191.657-.209 1.391-3.206 1.883-1.461-1.241-2.759.255-2.162 1.359-3.728.9.029-1.166 2.76-1.45.3-1.419-1.655-.763-3.444.658-3.863 1.644-.387-1.091 2-1.659 1.267-2.228-.552-1.315-2.774.134-2.787.659 2.415-2.407-.089-.287h-2.893l-1.671-2.374-.357-1.509.493-1.824 2.475-.867 2.385-.374 3.146-.671 4.518-1.5 3.624-.613 10.438-2.227 2.728-.373 3.146.075 4.355 1.225-1.096 1.857 1.55.866 2.55-.508-2.029 1.854-.67 2.048.492 2.032.746 1.794 1.609 1.077.523 2.256 1.028 1.749 1.432.882-.149 2-.894 2.242 1.773.613 3.654.358 2.877.408.269-.019.3 1.734 1.924-.882 1.386-3.02-2.177-.553h-2.833l.956-1.749-.851-1.54-.566-1.778-.135-2.2 2.892-.643 2.432-.18 2.609 1.375 1.029-2.137 2.773-1.644 1.849-2.3 1.581-2.54-1.983-3.245.119-2-1.088-1.421-2.029-1.031-2.5 1.66-2.564.792 3.057-3.02 2.643-1.652.3-1.108 1.969-2.361 2.207-1.659 2.266-.493-.493 1.569 2.55-.673 1.164-1.254 2.639-1.51 3.176-1.45 1.222-1.211-1.1-.374-.642-.344 2.714-1.449 2.162-1.779 4.147-1.913.744-1.51 2.059-.6 6.948-4.081 3.326-2.167 1.326-1.644-.3-1.031 1.447-1.63.089-1.225-.18-1 1.238-1.434 1.313-1.676.641-1.329.358-1.629 1.208-1.719 1.6-1.615 1.342-1.644 2.475-1.644-1.327-.06-3.758 1.151-3.13 1.554-1.611-.3-1.655-.269-.239 1.106-2.386 1.256-1.7-.254.253-.9-3.564 2.032-.566 1.526-3.012 1.434-3.713 1.391-1.447.059-3.31 1.032-3.7 1.256-.7-.7-1.483-.074.677-4.475h-2.938l-.911 3.408-.475-.489-1.7-.194-2.446.239-2.386.105-.865-.328-1.208-.255.147-.155a527.507 527.507 0 01183.625-41.039l-3.141.76-2.027.807-.135.762-.552.956-1 .912 2.3.165 1.148-.508.24-.553 3.146-1.495 1.61-.672 6.492-1.413q7.1-.187 14.246-.191a527.564 527.564 0 01304.857 96.408l.127.35.175.836-.893.075 3.25 2.736 3.012 2 1.687.628-1.031.164-1.682-.582-3.464-2.2-.537.12 2.761 2.571.285 1.21-1.924-.433-.955.584 1.387 1.882-1.625-.806-2.58-2.557-1.534-1.741h-1.658l-4-2.788-3.416-2.914-1.012-1.69-2.8-2.271-2.385-2.093.072.777-1.8-.374-1.957-.224-.191 1.136.475 1.57 4.4 4.14 1.416 1.659 5.069 3.438 2.865 2.616 3.026 2.481 1.1.165 2.238 2.032 2.713 1.6 1.449 2.241 7.112 4.157 3.473 2.226 1.834.748-.508-1.256 1.506-.209 4.043 1.764 1.15-.449.608-.687-.3-1.091.822-.33 1.463.36.119-.987-1.553-1.959 2.461 2.273 2.955 2.227 5.055 3.288 1.682 1.779 4.565 2.376 2.029 1.136-.2-.251q15.06 12.941 29.121 26.964a533.738 533.738 0 0167.2 83.687l-.265-.312-.817-.614-.271.165-2.8-1.734-.76-.194 1.387 2.719-5.069-6.5-2.119-2.316 6.518 8.609 1.682 1.958 1.373 2.182-.237.718-.551.18-.955-.643-.775-.21-1.539-1-1.43-1.047 1.359 2.153 1.192.582 1.582 1.51 1.16.643.883.15.551-.164 1.43 1.479.718.284 1.4 1.555 1.041.627 1.149 1.136 1.164 1.092.851.7 1.073 1.12.21-.193.456.7a530.036 530.036 0 0175.92 274.212q0 7.809-.231 15.561l-3.643-.24v3.291l.054 1.1zM990.6 356.111l-.8-1.5-1.9-1.419-2.565-.36-1.221.972-2.133.374-3.34-.642-1.06 1.389-.166 1.959 1.478-.673-.119-1.345 2.537.344.983 1.9 3.473.987 1.43-.688.286-1.779zm13.987 15.051l-.551-1.315-2.252-1.211-1.017-2.331-2.993-1.525-2.537-.494-2.176.523-.356 1.779-1.435.868.822 2.018 2.637 2.151 2.161.928 1.9-1.226 2.832-.359zm23.665-68.756l-6.252-4.575.014-.284-3.952-2.511-5.008-2.646-2.252-.687-2.356-1.465-2.7-1.376.071.643.418 1.077-1.145-.284-6.575-2.93 4.247 2.362.342.6 3.849 2.317 1.568.388.726.867 3.074 1.316 2.252 1.628 1.91 1.211 2.371.853 3.843 1.972 2.371.762.466-.164zm107.9 132.728l-.029-2.266-.646-2.9-1.813-3.651-.582-2.5-7.655-10.123-2.494-3.837-.827-2.481-1.572-3.19-1.676-2.651 1.171-.415-1.69-3.159 1.612-.108-1.107-2 .107-1.5-1.611-2.265-.48-1.8-4.285-5.962-1.323-2.482-2.228-2.928-6.749-6.78-2.17-1.4-1.092.138-1.9-.478-.216.616.554 2.251-.015 1.493-.539.725-1.058 1.017-.156 1.479.8 1.957-.108.987.029 1.371-1.43.123.833 1.463 1.949 2.867.437 1.222-1.561-1.966-1.4-2.526-1.06-2.57-4.1-3.185-3.843-3.243-.21.927-.94.373-1.24-2.078-3.5-3.243-2-2.571-.195.927 1.972 2.57 2.622 3.678 3.863 4 2.252 3.364 3.055 3.5 3.074 2.78 2.252 2.958.356-.91 1.506-.091-.06-1.305 2.181 2.409 1.66 2.511 2.322 2.312 2.184 2.851-.862.679-3.027-2.112-.387.94.172 2.111-3.566-3.22-2.522-3.545-.416 1.787 2.321 3.191-.181 2.541-2.659-2.172 2.316 5.579 3.184 2.5 2.968 3.019 2.076 3.252 3.135 1.34 2.522 2.019 1.871 2.913 2.753 2.8 2.645 1.526 3.35 2.326 1.508 3.129 3.306 2.342 2.718 3.343 1.984-.369 2.292.878zm8.406 9.9l-2.927-8.924-1.325-.612-1.387-2.766-.8 1.393-.134.162 1.088 3.184 1.625 3.945 2 2.662 2.717 3.84zm125.06 227.427l-.475-4.23-.328-4.29-1.06-4.29v3.2l-.223 3.184-.731-2.107-.789-.583-.285 2.676.285 3.258.8.523.955 1.615.6-.509.7 1.555zm-668.6 445.152l3.012-1.51-2.236-3.181-3.027-3.319-.7 3.124 2.937 2.243-2.923 1zm680.464-335.934l-2.913-2.2q-.154 2.831-.334 5.654l3.126-1.327q.055-1.064.113-2.129zM252.681 676.819l-.805.074-1.06 3.8-.864 1.509-.075 2.646.791-.523.746.433.626 1.435.879-.029.149-2.393.582-2.241.044-2.317-.059-2.227.03-2.317zM427.5 414.405l1.655-.165-1.834-1.54zm-.97-6.652l1.686-2.182-1.581.075zm5.652 26.716l1.849-.9-.431-1.669-5.294.061zm4.786 1.759l-2.475 1.225-2.4-.7 1.1 1.988 1.4 1.51 2.236-1.122zm598.051-16.479l1.125.646-.88-1.252-3.278-1.33-1.938-2.182.826 1.805 1.144.485zm-479.1-153.576l-.313-.643-.209-.822-.121-.125-.565 2.113-2.176-.06-2.953.793-2.207.208-1.79-.148-2.519.283-2.133.12-1.386-.075-.553-.314-1.878.538-2.519.593c-.771.348-1.539.7-2.309 1.055l1.264-.033.582.463.984.1-.492.792-2.371 1.33-3.832 1.674 9.395-2.257 6.038-1 3.37-.643 1.864.254 2.281.076 3.027-1.514h2.654l2.58.691 1.446-1.017-3 .435-.045-.673.411-2.721-.307-.015zM428.548 401.7l1.535-2.062-2.639 1.66zm737.728 111.343l.556 2.425.418 4.29-.076 3-1.059 1.271-.119 2.586 1.3 3.512 2.475.479.105-1.7 1.981-1.749.584-2.13h1.863l.46-3.1-1.848-2.571-1.834-.882-2.831-3.424-1.133-1.834v1.115zm-146.9-112.059l1.672 1.09 1.207.135-1.236-2.257zm-18.862 72.792l1.074 1.854 2.162.179zm-20.381 8.969l-1.882-3.6-.936 2.975 1.383 1.644zm91.584 46.262l-.6-4.051-.2-.345-2.965-14.326-1.116-3.983-2.651-3.17-2.7-.746-1.986-.647h-.29l-14.784 1.393-.267-.048-3.282-.967-3.906-2.034-2.907-.582-2.281 1.464-1.059 2.3-1.031-3.079-1.786-3.169-2.594-3.363-2.1-2.556-2.67-1.449-1.221 2.794-1.031 2.228-.537 2.974-2.566-3.348-1.192-4.454-2.129-.748-.807 3.378-1.492 2.974 2.565 3.334 1.7 3.169.61.559.136-.772h2.594l1.193 2.829 2.879 4.185 2.461 1.9-.181-2.915 2.894 2.6 1.116 4.155 1.1-2.034 2.357 1.854-2.024-4.036 3.1.4 3.415 4.679 3.027.732-2.992-3.633v-3.617l5.619 3.5 3.055.329.836-1.838 2.442 3.527 2.984 2.317-.453 2.619-2.223 2.959 2.061.793 1.668 3.154 1.1-2.213 3.478 2.854.224 2.871.579 3.706 2.043.807.67-3.093 1.567-1.42 2.637-.508-.551-3.976 2.238 3.6-1.981 4.215 2.043 4.095 1.221 3.9 1.088 4.3 1.568-1.5-1.046-4.245 2.685-2.362-2.461-3.049.613-3.184zM922.466 496.33l-3.924-.477-2.309 1 1.686 1.584-1.567 1.39 2.057 2.362.774 3.349 2.342-1.077.913-2.8 2.636-.434.5 3.8-.689 4.694 3.477-3.125 4.742 1.914.922 4.424 4.294-4.05 4.072-.792 4.024-2.018.138-4.679 1.444-2.735-.475-4.29.879-4.723-2.057-4.889-4.281-3.259-3.715.958-4.414-3.095-1.13 2.557-2.922-.121 1.249 3.215-.28 2.69-2.58.494-1.449 2.75.85 2.436-3-.254 3.283 3.243-1.359 3.408zm231.69 245.136l-1.088-1.631-1.6.838.105 1.9 1.477 1.2zm-6.323-1.346l-.642 3.11-1.22 1.986 2.294 1.226.433-2.5zM746.454 549.1l2.4-2.138.6-3.6-1.73-2.825-4.012-.045-2.772 4.9 1.342 4.319zm300.145 3.19l2.851-.284 1.43-3.587.584-3.842-.584-4.8 1.345-3.991-5.027-6.1-3.639-2.615-3.25-1.823-1.012-4.305-3.862-2.242-2.97-.718-1.924 1.824-2.057 2.137-.356 3.587 1.967 3.886 2.237-.732 1.026 2.646-2.769 4.38 1.682 2.885 2.3-.732.537 3.3 3.4.24 1.135-1.8 2.219 4.858 2.746 3.991-1.387 2.123zM754.58 949.935l1.133 5.4 3.162-3.215zM905.3 320.267l-2.965-.239-.194 2.6 3.591.912 3.15-1zM741.34 840.731l3.13-1.509 1.224-3-4.354 4.478zm.016 95.571v-6.351l-4.966-3.319zm32.43 21.181l-3.145 2.077 8.6-.329zm-6.307-173.134l-3.444 1.672-3.49.838-4.114.9-.537 2.314 9.319-1.762 4.623-2.467zm-5.666 179.683l-1.446 2.152 4.323-.09 1.433-3.515-1.447 2.153zm406.672-502.813l-1.61-2.6-2.266-2.511 2.461 4.23zm-120.5-5.081l.6 2.421 3.34.539.266-2.317-2.413-1.526zm7.473-2.064l-1.15-1.6-.822 1.525.48 2.556 2-.209zm-5.981-4.5l-1.654-2.437-3.1-.986 2.67 6.532 3.862 1.4.713-1.884-.984-2.81zm103.827 5.4l-1.444-1.076.8 1.583zM585.653 258.086l-2.507.5-.521 1.329 3.281-1.046zm437.434 144.69l2.58 2.5 1.6-.522-3.772-4.5zm-507.831-77.083l-2.52-.748.134 2.976 2.118-.629zm647.6 110.969l-1.521-1.795-1-2.092-.865-.225-3.52-4.618 2.252 3.587 3.074 5.382 1.444 1.987 1.539 2.915 1.283.538-.9-2.616zm-15.778 131.325l.955 5.322 1.192-1.883 1.848-.374-1.805-4.05zm7.815-25.948l2.846 3.229 2.314-.239-1.715-3.558.294-2.123-2.28-3.108-2.428-2.676-2.509-2.271-2.518-1.809-2.817-.2 1.625 4.246.28 2.122-.741.747 2.043 1.854 2.651 1.017zm1.744 180.024l-.613 1.913.361 2.633.922-2.319zm-434.513 193.9l-1.746.592 5.265 1.309-1.029-1.8zM1175.4 477.377l-.071 1.645 1.1 3.079-.808-.389.257 2.736 2.266 2.391-.584-2.66-.133-2.212.522-.9-1.059-3.706-1.165-3.722-1.577-1.719 1.611 3.422-1.316-1.165zM1157.615 734.2l1.012-3.362-2.247-4.229.28 5.768zm13.215-250.545l1.387-.568-2.921-1.434-2.181-1.152v-2.167l-2.461-.568-.922 1.4-.523 1.779 1.388 3.364 2.057 2.855 1.463-1.017 2.4 2.421 1.235.314-.371-2.153 1.582.269zm-163.25 15.56l.941 4.47 2.475 1.9 1.339 2.212-1.534-5.037zm-301.192-43.287l2.743 2.406 3.46 1.839 2.221-1.285.3-1.809-4.532-1.331zm-8.082 20.208l2.251 2.139 3.177 2.077 1.521-4.095-.627-3.1-2.534-.657zm13.926-39.1l-2 1.584 2.206 1.913zm-46.278 53.056l1.03-3.363 4.055-2.66 2.773-2.257-.656-2.826-3.667-1.27-4.236 2.78-3.727 2.99-1.968-4.066-3.549-.329-1.163-2.84-4.817.912 2.3-4.469-2.386-1.375-3.489.732-3.669-.329-3.519.329-1.7 1.838-3.339.613-2.983 2.586 1.283 3.3-2.744 1.8.567 3.332 3.355 2.93 3.518 1.763 1.7 3.767-4.608-.059-3.623-2.137-3.251-1.48-2.789 4.753 1.67 3.632 3.595 2.108-1.85 5.784 4.161 1.539 5.055 1.6 5.576.24 4.533.418 4.5-1.182 1.058 3.752 2.416 3.6 4.2.388 4.346-1.2v-3.408l3.675.568 2.238-3.513-3.937-3.034-2.758-3.528-1.03-3.931 2.953-4.185zm48.59-23.759l-3.579-.778-1.878-2.691-3.266-1.763-1.342 2.646 1.044 3.8 4.04.329 1.582 2.422-.344 3.318-1.848 3.079-.925 3.961 4.175 2.691 4.265 1.255 3.951 1.017 4.28.568 3.1-2.333 3.34 2.362 4.459-1.031 1.745-3.2.3-3.124-3.787-2.272-3.4-.313-3.8-1.226-4.726 1.3-4.236-1.659-2.489-2.736 1.506-1.27-1.82-1.988zM677.251 449.5l1.924 1.9 3.907-.328 2.609-2.855-1.744-.792-2.624.03-2.73-.359zm6.427-10.083l-2.5.986 2.878 1.106.82 1.644 2.356.912 1.954-.7-1.745-2.691zm46.911 150.667l-3.564-.208-.82 5.111 1.67 2.332 2.118-3.632zm-4.411-13.467l-3.832-2.481-1.61-3.827-2.61-3.138-4.126-3.398-3.27-3.973-.507-4.455-4.354 3.035-1.625 3.467-1.6 4.9v5.247l-4.69 2.974 5.4.777-.448 4.395 3.906-.21 3.267-3.348 2.8-2.616 3.012.315 3.1 2.5 3.087 3.17zm-12.752 9.895l-1.938 3.453 3.683-.328 4.309-3.349.089-.7-2.788-.255zm15.3 57.532l-1.133-2.331-4.443 2.764 3.027-.552-3.669 3.528 3.013.178 1.849-2.2-.239 3.826zm13.8-225.6l-2.476 2.3-3.266 1.51-2.4 1.179-.387 1.525-2.968-.478-2.908 2.675-.536 3.767 1.774 2.87 4.042.6 3.147-.629 4.159.374 4.473-.673-3 2.048-4.563.882-2.088 1.465-3.042-1.674-2.3 3.931 2.132 1.6-.73 3.409.432 3-2.7.6-3.951 3.991 3.311 2.466H723.9l-.835 3.14 1.654 1.628-2.58.554-3.339 1.824-.924 3.168 3.518 1.33 5.413 1.421 2.774-1.031 2.758 1.015 2.55-1.136.924 2.705 4.577-1.7 2.894-3.122-2.884-3.448 3.354-2.451-.492-2.676 4.219-.524 1.6-3.886v-3.856l1.684-3.841 4.1-1.808 2.088-3.768 1.477-2.989 2.64-3.049 2.684-3.887-.33-1.852 1.746-2.362 1.133-2.093-.478-1.584-2.34-.6-2.178-1.555-3.307-.506-3.057-.942-3.071.15-2.224.776-2.608-.538zM752.554 303.6l-3.472.778v2.57l1.878 1.779 2.668 1.375 1.939-.822 3.192-4.589 1.3-2-3.385 1.061zm15.044 8.146l-.7-2.346-3.4-1.241-2.611-1.122-2.758.21.224 2.212-1.476 2.123 1.224 1.838 2.458 1.122.494 1.838-1.059 1.255 1.252 1.51.836 1.48 3.95-1.316 1.537-2.107 3.16-1.809-.178-2.272zM662.459 449.964l-3.324.15-2.953 1.33 1.028 1.763 2.371-1.225zm-13.225-133.375l1.863 1.765 3.922-1.629 3.832-1.913 2.386-.419-4.309-.7-5.532 1.375zM808.287 987.9l2.848-3.724-3.817-3.176-7.276-.823 3.489-2.329-5.04.343-1.58-2.753-5.055-.372-4.371-.447-5.829.266-2.848 1.467-5.084-1.943-5.145.134-2.849 2.167 4.354-.091 2.222 2.781.045 2.767 3.744 3.391-3.668 2.181-4.4.105-3.7-1.329-4.4-.614-2.89 2.11 5.919 2.676 1.385-1.438 4.414-.086 3.7.657 3.684-.866 4.413.6 3.7 3.977 2.907-3.6-.042-2.081 4.351-1.629.062 2.062 4.369-.909 5.024-1.734 4.385-.314zM744.5 975.1h4.354l2.877-1.06.895-.144-2.3-4.742-4.338-.762-2.953.733.805-3.543-7.948-1.552-4.279-2.9-3.6-1.543-3.488-2.252-4.235-2.305-4.25-1.553-4.279-.224-2.8-3.067-3.444-1.581L702 946.9l-4.234-.3-4.176-1.795-4.235-.358-4.294 1.077-8.544.628-4.369 1.672-2.923 1.824-.193 2.81-4.325.943 5.592.657 1.625-2.719 4.921.524 3.012-1.839 2.923-1.871 4.2 1.181 5.652 1.167-4.325 1.09 2.714 2.377 4.243 1.032 6.412.462 2.744 2.333 3.578.9 4.25 1.691 4.309-.467 1.431 1.424.612 3.6 4.25 2.977 6.5.209 1.431 2.915-2.983 2.015-2.206 2.033 5.83.181 4.369-7.929h4.354zm78.091 7.656l-5.132.509.195 4.139 3.7.3 3.624-1.048 3.578-.386 2.057-2.319-2.979-1.748zm.788-281.949l-3.653-1.032-4.039-.15-3.937.539 4.279 1.749 1.82 2.077 3.668.957 4.1.21 3.43-.568-2.489-2.781zM723.7 929.2l-2.088-.091.6 3-2.161 2.091 4.13 3.724 2.028 4.411 1.491-2.815-2.058-2.944.074-2.943zm4.682 56.365l-4.384-.8-3.712 1.272-.731 1.3 2.892.119 2.863 2.915 3.7.762 2.923-1.334 2.981.824 2.923.048-1.475-2.843-3.594-1.4zM678.36 469.036l2.369-2.989 2.472-2.556-1.85-2.168-1.421-3.483 1.3-3.706-2.56.777-3.035 1.554.874 1.854-1.836 1.6-.445 2.885-3.375-2.377.814-2.914.031-2.392-1.3-3.168-2.058-1.72-3.094 1.48-4 2.108-3.508 2.018 1.762 2.376 1.007 2.228 3.42-.762v3.242h-3.451l-.3 2 1.985 1.913 2.709.388 3.375-.821 3.316-.224 3.893 2.3zm3.157 489.643l2.862-.581-1.149-2.587-1.789-1.557-1.8 1.629.94 1.543-.924 1.029zm49.921-40.643l-3.817-3.648 2.074 8zM646.49 456.078l-4.19-.419-4.057-1.33-2.773 4.379-3.907 2.78-8.32 3.558-.09 4.693-2.4 4.858 4.295.494 2.966 1.195 5-1.9 4.921-3.693 4.9-.3 4.325-.135 4.592-.239-1.029-4.007.612-3.93-3.356-2.257zm29.91-13.138l1.431.358 1.64-2.257-2.788-.075zm-19.3-.734l-3.743-.194-.954 3.5 2.1 1.061 1.506 2.093 3.877-.852 2.982-1.39 1.015 2.735 4.666-1.286 1.506-2.66 3.162-.538-.418-2.736-3.072.837-2.266-1.823-2.848-.12-3.445.344zm26.661 24.947l-2.579 2.109 2.475.9zm-21.83-164.329l-.82-1.54-3.459.315-4.5 1.972 1.818 1 4.861-.1z" fill="#39b54a"/>
  <path d="M319.281 1329.654l-23.12 17.9-52.04-43.35 10.265-28.343c-7.779-8.345-16.408-17.6-26.741-28.687l-28.736 11.1-43.727-50.574 15.7-25.211-20.768-32.963-31.82 4.409-34-58.863 21.684-19.9c-6.408-13.559-12.361-26.157-18.8-39.789l-28.044 5.11-23.682-63.381 23.038-21.1-9.161-36.614-30.784-5.939a636764.92 636764.92 0 01-11.8-64.623L30.928 833.6v-40.368S8.851 786.78 0 783.562v-66.117c7.445-2.914 16.5-6 27-9.582l3.813-39.286L4.57 651.194l11.66-63.957 30.5-6.476c3.405-12.525 6.4-23.559 10.1-37.159l-23.456-18.546 22.075-63.5 29.707 1.907 18.967-38.535-21.663-20.11 34.14-59.706 29.231 6.216 23.794-32.638-16.725-25.065 43.084-51.725 28.116 10.7 28.888-27.293c-3.4-8.75-6.868-17.7-11.089-28.574l50.749-43.943 25.052 16.028 33.187-21.318-4.693-31.593 59-33.981 19.934 21.711 39.8-19.035-5.085-27.993 64-23.882 19.12 23.093 38.137-8.861 6.093-31.07L651.921 4.05l15.407 25.418 40.129-1.981C710.245 18.9 716.578 0 716.578 0h67.5l9.027 27.209 39.622 3.718 16.007-25.7 64.994 10.943 5.417 30.092 37.93 11.024 18.352-23.767 63.378 22.209-1.916 29.911 36.634 17.862 23.1-20.276 58.568 33.658c-2.116 9.447-4.186 18.7-6.517 29.1l32.959 23.872 24.779-17.022 51.747 43.459c-3.392 8.895-6.785 17.8-11.5 30.149l31.676 25.374 24.61-9.975 44.019 50.866-16.249 25.131 21.772 33.309 30.723-5.779 34.468 59.615-21.816 20.125 19.151 39.688 27.966-4.918 23.674 63.68-23.108 19.3c2.753 11.7 5.627 23.927 8.961 38.1l31.064 6.068 11.644 64.758-25.365 15.117 2.14 40.077 28.011 9.312v66.849l-27.113 9.116-3.87 39.6 26.28 16.46-11.7 64.631-29.854 5.48-11.063 37.807 23.932 18.607-22.29 63.506-29.671-2.125-17.972 36.435 20.129 23.48-33.41 58.545-29.233-6.3c-7.427 10.2-14.858 20.4-23.763 32.635 5.28 7.909 10.545 15.8 16.783 25.14l-43.142 51.838-27.83-11.072-28.936 27.391 11.269 28.544-50.558 43.793-25.233-15.826-33.065 21.077 4.635 31.733-59.152 34.164-19.377-22.006-40.006 19.035 5.218 28.036-63.872 23.882-19.126-23.116-37.993 8.715q-2.855 15.117-5.874 31.114l-64.6 11.83-15.74-25.155-39.641 1.779-9.461 28.094h-66.584l-9.236-27.045-39.249-3.96-17.224 26.3-63.772-11.555-6.579-30.588-36.947-10.174-18.771 23.608-63.1-22.152 1.86-29.573-38.3-19.1-20.268 21.608-59.42-33.855 6.039-29.728zm431.2-1105.1c-292.4 0-525.529 232.241-525.529 525.584 0 292.116 232.472 525.366 525.5 525.366 292.44 0 525.443-232.937 525.443-525.4-.009-292.604-232.752-525.547-525.418-525.547z"/>
  <path d="M285.121 304.369l56.567 50.779-21.189 23.6-56.566-50.779-16.233 18.084-22.788-20.453 53.6-59.706 22.79 20.458zm27.866-68.839l21.138 24.791q2.149-8.918 7.8-13.733 8.56-7.3 18.855-5.4t19.267 12.423l32.035 37.572-22.236 18.957-26.712-31.33q-3.245-3.8-5.162-4.428t-4.237 1.353q-3.745 3.193.969 8.722l27.473 32.222-22.234 18.957-69.189-81.148zm153.1-20.04l-37.415 23.715a20.465 20.465 0 01-7.072-11.889l12.537-7.947q-5.964-6.487-12.891-2.1a10.6 10.6 0 00-5.034 8.7q-.416 5.768 3.474 11.9 4.059 6.4 9.372 8.583a10.216 10.216 0 009.867-.7q3.695-2.343 4.784-8.213l24.762 7.984a40.864 40.864 0 01-16.949 21.564q-14.648 9.285-30.844 5.769t-25.4-18.034a39.109 39.109 0 01-5.412-30.793q3.747-16.341 18.4-25.628 14.318-9.073 30.22-5.511t24.938 17.81q.919 1.456 2.664 4.79zM592.445 88.641l24.453 72.8q4.578 13.627-.756 24.979t-18.37 15.73q-15.7 5.275-28.8-6.233-2.523 9.42-7.267 14.68t-13.334 8.146q-13.628 4.578-23.771-1.575t-15.566-22.3l-23.607-70.282 30.067-10.1 22.091 65.764q1.642 4.888 2.941 6.182t3.67.5q4.444-1.493 1.931-8.973l-22.264-66.282 30.068-10.1 22.09 65.763q1.593 4.74 2.954 6.1a3.389 3.389 0 003.732.56q4.443-1.493 1.757-9.492l-22.087-65.767zm55.2-8.653l4.819 32.22q6.541-6.429 13.884-7.527 11.125-1.663 18.856 5.4t9.775 20.735l7.3 48.833-28.9 4.321-6.079-40.723q-.74-4.944-2.037-6.489t-4.311-1.093q-4.868.726-3.793 7.913l6.262 41.878-28.9 4.321L618.75 84.309zm140.574 63.9l-44.295.4a20.471 20.471 0 01.264-13.832l14.844-.134q-1.644-8.658-9.845-8.583a10.6 10.6 0 00-8.863 4.729q-3.4 4.68-3.329 11.945.069 7.578 3.432 12.235a10.214 10.214 0 008.754 4.608q4.374-.041 8.4-4.451l16.819 19.854a40.874 40.874 0 01-25.774 9.376q-17.344.157-29.246-11.375t-12.059-28.72a39.115 39.115 0 0111.651-29.013q11.805-11.9 29.149-12.063 16.952-.155 28.58 11.263t11.781 28.293q.018 1.719-.261 5.472zm85.367 10.97l-43.911-5.832a21.438 21.438 0 01-.2-6.252 21.659 21.659 0 012.4-7.4l14.715 1.954q-.41-8.8-8.539-9.882a10.6 10.6 0 00-9.441 3.435q-4.022 4.156-4.976 11.358-1 7.513 1.676 12.6a10.213 10.213 0 008.019 5.793q4.337.578 8.939-3.226l13.864 22.017a40.87 40.87 0 01-26.838 5.657q-17.193-2.283-27.355-15.376t-7.9-30.13a39.111 39.111 0 0115.616-27.086q13.362-10.125 30.557-7.843 16.8 2.232 26.711 15.172t7.684 29.669q-.215 1.7-1.019 5.376zm55.333-60.038l-25.554 103.537-28.367-7 25.555-103.535zm82.651 61.5l-32.294 68.815-28.714-13.475 45.305-96.539 37.413 17.558q24.612 11.55 33.3 29.263 10.276 21.133-.478 44.048-10.288 21.925-30.939 29.149t-42.928-3.231q-2.618-1.229-8.425-4.3l13.31-28.36 4.6 2.158q25.105 11.781 34.965-9.223 9.258-19.733-15.423-31.315zm116.667 117.54l-36.42-25.215a21.422 21.422 0 012.678-5.652 21.661 21.661 0 015.515-5.5l12.2 8.449q3.649-8.019-3.093-12.688a10.6 10.6 0 00-9.969-1.248q-5.472 1.864-9.607 7.839-4.314 6.231-4.252 11.974a10.212 10.212 0 004.493 8.813q3.6 2.49 9.428 1.206l2.3 25.916a40.868 40.868 0 01-26.464-7.205q-14.261-9.871-17.333-26.158t6.711-30.417a39.11 39.11 0 0126.249-16.985q16.509-2.916 30.77 6.955 13.938 9.649 16.854 25.684t-6.691 29.909q-.977 1.418-3.369 4.323zm35.384 39.3l-20.669 22.066a38.647 38.647 0 01-5.217-4.029q-12.829-12.016-13.477-28.467t11.261-29.165a40.346 40.346 0 0157.368-1.822q13.8 12.924 14.2 28.443t-12.687 29.492l-26.117 27.882-21.325-19.974 24.674-26.343q4.218-4.5 4.534-9.241a9.915 9.915 0 00-3.391-8.207 11.5 11.5 0 00-19.236 8.422 10.342 10.342 0 003.509 7.569 13.243 13.243 0 006.573 3.377zm111.467 6.327l-81.1 69.25-18.973-22.219 81.1-69.251zm-649.815 978.138l-30.849 102.082-28.717-8.679 23.549-77.925-20.356 21.435 6.282 1.9-6.712 22.211-39.857-12.049 51.865-62.513zm58.444 8.9l-15.425 105.515-29.917-4.373 15.426-105.52zm85.238 113.491l-28.086-9.812 20.553-58.362a14.073 14.073 0 00.842-4.535 9.8 9.8 0 00-3.155-7.253 10.268 10.268 0 00-7.433-3.018 9.82 9.82 0 00-7.292 3.114 10.806 10.806 0 00.058 14.961 9.968 9.968 0 007.4 3.018 21.792 21.792 0 002.967-.324l-12.536 30.675q-16.67-7.2-24.01-16.469t-7.4-23.174q-.068-17.265 11.721-29.187a39.4 39.4 0 0128.977-11.989q16.25-.063 28.445 11.8t12.258 27.8q.029 7.422-5.613 23.147zm113.873-46.157l4.463 30.535-68.182 9.966 25.414-70.827a10.563 10.563 0 00.657-5.228q-.916-6.261-8.26-5.188a7.341 7.341 0 00-6.072 8.152 8.016 8.016 0 003.642 5.468l-10 26.1a37.224 37.224 0 01-15.018-11.463 37.628 37.628 0 01-.252-44.929 37.063 37.063 0 0151.97-7.715 36.015 36.015 0 0114.526 24.563 35.331 35.331 0 01-1.547 16.965l-8.964 26.181zm67.164-97.994l1.161 111.054-31.035 9.379 1.118-79.749-31.259 9.447-8.861-29.315z" fill="#fff"/>
</svg>
