<svg xmlns="http://www.w3.org/2000/svg" viewBox="0 0 1480.429 350">
  <path fill="#39b54a" d="M105.168 85.22l.07-.317.48-.436-.035.244zm76.154 13.1l1.145.277-.211-.808.855-.2-.211-.7.176-.784.686-.756.377-.68.906-.412.751-.472.886.021.581.19.6-.2.751.042.069.624-.453.659-.564.372-.049.464.9-.7.633.465.215-.364-.468-.323.281-.392.539.253.166.309.111.6.5.745.224-.624-.065-.6-.225-.513.412-.143-.284-.655.71-.486.913.014.647 1.1.343.656.556.766.6.684.616.541.293.579.793.385.744.708.806.17 1.049.4.512.455-.823.346.11.611.6.482.616-.319 1.031.43.858.607.7.871.4-.416.585.659-.346 1.082.7-.184.6.462-.367.5.063.43.01.555.595-.18.917.573.46.547-1.723.368.9.129 1 .059 1.007.239.686.569.778.714-.419.614-.664.143-.775-.493L206 109l-.193.6.888.62-.124.777.381.365.208-.85 1-.17.709-.385.221.739.015.875.037.905-.124.781-.279.888-.437.75-.335.887-.758.526-.151.725.065 1 .293.846.217.871-.1.895-.2.916-.507 1.077-1.054.567-.645.729.228.86-.841.2 1.168.981.486.922.348.992-.069 1.192-.409.95 1.036 1.071.087 1.116.286 1.023.427.964.111 1.1-.448.588-1.475-.162-.91-.562h-1l-1.3.306-1.421-.805-1.86-1.748-.486-.56-1.4-1.181-.4-.785-.823-.456-.448-1.129-.786-1-1.245-.7-.361-.953-.555-.9-.355-1.113-.173-1.181.242-.922 1.138-.346-.438-1.434-.824-.974-.269 1.019-.92.615-1.079-.47-.231-1.122-.193-1.13.951-.2 1.272.238-.62-.843-.882-.083-.807-.95-.179.719-.8.207-.5-.4-.069-.964-.583-.67-.2-1.119-.379-.719-.748-.643-.327-.9-.838-.719-.648-.532-.21-.625-.93-.1-1.017-.477-.876.135-.947.2-.569.452-1.041-.293-.561-.418.327-.429-.775-.314-.483-.377.52-.445.721-.235-.779-.363-.211-.6-.593.117-.58-.47-.039-.048.254-.743.817-.342.627-.525 1.152-.435.251-1.02-.31-.549-.972.107.2-.815.772-1.24.524-.007.041-.524-.391-.52.605-.694zm19.356 3.815l.692.485.195-.36zm-9.749-22.165l.866.342-.358.115-.088.29 1.09.349.031-.325-.25-.289.452-.133-.07-.383-.456-.3-.486.171-.71-.07zm-7.24 49.9l.637 1.129 1.166.527.1-1.046.954-.492.034-.851.289-1.262-.769-.548-1.969-1.074-.884-.715-1.259.143-1.166-.733-.122-.987.971-.429-.992-.718.2-.851-.727-.921-1.082-.568-1.142-1.088-.828-.454-1.074-.129-.018-.966-.226-.631-.922.15-.689-.395-.633-.209-.793.6-.759-.042-.717.53.331-.941-.148-.415-.194-.08-.115-.852.268-.61.066-.009-.138-.28-.769.083-.953.531-.87.7-.459 1.73.073.813-.536-.719.229-1.59.432-.753.459-.482 1-.4-.831-.157-.936-.133-.7.373-.849.656-.522.729-.484.736-.309 1.092.445.917.272 1.042.459.89.991.82 1.03.128 1.416.464.755-.094 1.034.9.647-.3.745-.949.386.838 1.228 1.011-.285 1.3.918-.649.595.991 1.013.638.306.991.32.833-.539.677-.616.858-.71.676.817 1-.887.7h-1.2l-1.34-.378-.18.665-.536.164-.352.823.491.879 1.409.039.71-.5 1.009.167.943.5.88.328.81.485.046.865.856.641.762.311 1.012.268.38.489.97.443.957.265 1.026.062-.118-.843-.838-.621-.915-.764-.8-.631-.487-.81 1.169.419.967.589 1.141.562 1.214-.15v-1.374l-.849-.76-.243-1-.717-.593-1.1-.743-.662-.959.042-1.367zm13.419-56.254l-1.075-.115-1.113-.16-.895-.286-1.044-.209-.967-.143-.72.373.31.418 1 .171.763-.076 1.006.345.754.5 1.2.272.911.073.63.035 1.033.363.106-.038-.91-1.518zm6.739.028l-.817-.028h-.9l-.983.189-.687 1.132.2-.009 1.089.143.338-.332.825.251 1.11.042.455-.237.842.3.821-.2.185-.611.108-.527-.433-.65-.613-.648-.615-.2.131.653-.385.411zm-41.361 30.7l.65.505.529.189-.042.816.634-.129 1.315.226.4-.471.017-.47-.574-.838-.414.688-.5.624-.365-.213.146-.638.358-.666-.233-.708-.567-.206-.261-.46-.487-.2-.425.185-.076.376.448.53-.619.36zm4.666.146l-.168.809.324.75 1.173.234.678-.551.557-.775.64-.366.153-.666-.612-.31.375-.7-.177-.481-.741-.275-.192-.586.06-.806-.494-.112-.362.74-.665.485-.327.753.223.579-.018.726zm-47.907-10.809l.247-.736.54-.6.128-.844-.654.174.07.635-.738.827zm16.437-8.105l.845-.457.292-.827-.56-.586-.6.105.115.544-.348.415zM114 131.979l-.456-.5-.372-.708-.821.98-.024.777-.554.984-.21.984v1.325l1.806-1.064v-.788l-.823-.405.494-1.046zm40.685-58.259l.338.189.623-.116.309-.181h.953l-.1-.572 1.364-.07.365-.523-.6-.652-.991-.23-.648.2-.866.907-.584.07-.191.478zm5.672 33.3l-.094.816-.234.611.063.871.922-.094-.063 1.12 1.142.369.667-.819.262-.757.313-.659-.449-.715-.759-.314-.563.366-.439.7-.1-.8-.184-.6zm-5-36.237l-.473-.22-.226.227.306.2zm6.061 34.915l.268-.547-.452-.021-.387.851.453.39zm9.854 10.293l.176.495.624.258.654-.258 1 .24.119-.572-.181-.788-.64-.4-.85-.132-.7.1.106.215zm32.461 127.558l.494-.53-.049-.89-1.377.381.361.1.038.728-.67.416zm1.688-77.36l.232.858.815-.231-.146-2.211-.623.381.039-1.138-.394.293-.213 1-.438-.262.038-.753.7-1.325-.949.45-.525-.6.41-1.057-.755-.171-.884.234-.821.415-.967-.52.417-.659-.849-.147-.817.928.174-1.151.257-.8.268-1.179.038-1.123-.633.157-.721.729-.253.788-.108.956-.3 1.175-.048 1.3-.439 1.2-.258.984.488.073-.54.844-.459.645.407.848.975-.579 1.214-.063 2.077-.485.953-.055.174.693-.564 1.135h.87l.422-1.678.514-.132h.734l-.059.938zm-3.383 66.719l.311-.53-.516-.067zM109.3 110.656l.511.481.522-.565.042-.5.675.457.341-.6-.79-.223-.745-.181-1.089-.206-.73 1.151.595.268zm93.182 121.221l-.125.5.5-.083zm79.254-119.7l-.055-.073-.433-.7.126.244.1.24.011.03.482.668zm-91.078-33.214l.106.082h.465l-.471-.346zm-1.156-.3l-.65.217-.284-.109-.36.031-.578.4.947.066.626-.3.365.3.5-.055-.063-.17h-.08zM114.051 68.2l-.268.223-.16.363.341-.328zM189.1 78.436l.272.093-.314-.339-.424-.028-.651.39.583.223.416-.035zm.737.251l-.465-.158.128.138zm-76.583 19.479l.16-.5-.257-.9-.491.631-.188.572.31.391zm77.4-19.2l-.314-.247-.5-.029.042.014.129.347.766.008-.012-.011h-.137zm-77.084-7.6l-.327.453.17.119.327-.056-.072-.234.247-.345zm73.552 6.8l-.407.492.783.042.483-.14-.254-.324zm9.6 11.3l.042.029.849.132 1.354.052 1.043-.283.014-.6.563.537.954.052 1.02-.226 1.075-.478-1.058-.262-2.212-.784-.825-.105-.488-.419.932-.055.5-.276 1.093.356.254-.586-1.2-.761-.57.5-.655.272-.832.15-1.029.1.188-.809-.651-.523-1.036-.349-.627.014-.017.558-.254.461.615.53-.083.767.7.063-.209.422.769.314-.341.408zm.894 206.89l-.458.67q-.613.113-1.23.218l-.063-.449.37-.46h-.435l.064.46-.562.178.195.007-.234.081-1.144.209-1.323.192-.754.083-.741.059-.61.112.15.045-.142.081.723-.07 1.246-.192.125.021-.212.049-.779.107-.424.033-.871.135 1-.119-1.6.235.038.006-.129.022-.085.081-.161.022q-2.066.246-4.151.425l-4.595.307q-1.138.055-2.282.088l-.09-.387.283-.459h-.39l.107.459-.163.261-.417.039.247.014-.049.092h-.09l-.165-.008-.138-.856h-.269l.008-.061-.411-.1.31-.171.723-.014.021-.153.442-.067.63-.355.609-.2.477-.208.194-.211.47-.156-.125-.212.665-.336-.289-.142.024-.165-.24-.543.2-.28.634-.167-.105-.377-.3-.185.5-.324.184-.321.515-.345.035-.331.7-.493-.289-.39.511-.265.028-.31-.121-.367.194-.393.067-.8.532-.442.191-.429.216-.44-.15-.426.035-.446.212-.467-.3-.6-.129-.541.028-.485-1.006-.359-.689-.122-.664-.39-1.023-.214-1.023-.3-.682-.073-1.381-.31-1.033-.426-1.041-.073-1.4-.447-1.362-.733-.884-.566.163-.554-.7-.774-.366-.587-.7-.4-.365-.411-.706-.618-.369-.617-1.075-.847-1.1-1.939-.717-.681-1.075-.5-.376-.784-.713-.6-.713-.488-1.079-.416-.73-.393.72-.4-.741-.747-1.135-.721v-.593l1.841-.517 1.068-.4.71-.2.358-.7.345-.46-.884-.054-.188.716-.887-.788-.734-.3 1.984-.21v-.739l-1.991-1.032.184-.193v-.414l.981-.484.024-.067.165-1.04 2.734-.827-.4-.737.984-.092-.211-.73.8-.831 1.354.053.588-1 .777-.714-.769-.608.4-.877-.207-.9v-.113l-.167-1.151.177-.7-.715-.752-.911-.767-.535-1.041.553-.561-.719-.029-.535-.771-.9-.49-.716-.038-.556.717-.723.4-.914.221.163.611.9.639-1.094.366-.914.074-.156-1.026-1.085-.085-.531-.626-1.074-.394-1.077-.242-.549.231-.528-.5-1.073-.256.2-.87-.691-.667-1.222-.753-.514-.661-.748.5-.333-.334-.719-.256-.308-.785.2-.742.031-.764-1.7-1.46-1.51-1.623-.666-.892.712.115-.666-.9-.361.415-2.087-.352-1.01-.649-.871-.164-.482-.565-1-.668-1.027-.205-1-.512-.981-.689-.617-.784-.8-.817-1.233-1.585-.776-.671-.808-.511-.818-.384-1-.256-1.045.216-1.2.165-2.225-1.279-1.116-.49-1.814-1.545-.939-.48-.89-.789-.907-.624-.9-.647-.971-1.186-.684-.913-.467-.167-1.053-.55-1.151-.948-.464-1.038-.8-.995-.978-.909-.55-1.264-.414-1.215.7-.231-.2-.611.719-.415.134-.643-.481-.728-.015-.6-1.3-2.863-.451-1.277-1-1.918-.24-1.372-.91-1-.517-.809.125-.481.429-.506-.2-.851-.375-.2-.2-.833-.636-1.27.277-.969-.818-.625-.86-2.738-.052-1.168-.2-1.078.1-.7-.03-1.172.273-.813-.471-.649-.283-.752-.518-.126-.609-.963-.333.569-.178.875-.053.948-.392.712.122.862.419.833.2 1.064.333 1.157.214 1.085-.052 1.1.412.98.194 1.232.458 1.37-.02 1.1.231 1.228-.171.634.326.917-.323.179.171 1 .623.333.722 2.357-1.127.489-.2-1.546-.6-1.036-.432-1.143-.461-.98-.853-1.029.547-.436.267-.956-.1-1.165-.59-.9-.306-.918-.587-.349-.455-.837-.365-.606-.04-.778-.5-1.06.757.652.742-.116.257-.805-.521-1.835-.415-1.23-.564-.758.277-1.174-.28-.371.287-.8-.264-.76.175-.478-.092-.843.079-.949-.06-1.238.155-1.1v-1.015l-.372-1.06-.409-.29.145-.7-.405-.286-.471-.765-.564-.833-.758-.972.032-.038.384-.9-.155-1.382-.03-1.088-.277-1.064.323-.383.376-.778-.379-.306.023-.834.3-.848.23.837.112-1 .323-.154-.276-.456-.231.46-.468-.593.4-.537-.2-.826-.036-.925.317-.823.332-.62.066-.824-.085-.746.25-.453.758-.687.593-.837.343-1.054.1-.812.448-.97.87-.851.784-.9.616-.833.544-.9.623-.614.365-.809.38-.607.7.6-.528-.882.607-1.322.342-1.085.261-.938.138-.575.363-.377.458 1.092.6.5.261.9-.861.432.581.017-.116.366.791-.711.168-1 .326-.167.152-.849h.027l.037-1.1.453-.692.221.011-.219-1.3-.118-1.021-.077-1.026-.327-1-.428-.844-.17-1.147.442-.554.107-.872.487-1.022-.24-.977.39-1.4-.076-.84.414-1.12.779.031.181-.586.967-.55-.72-.217-.038-.819.2-.827.407-.893.546-.453-.327-.359-.062-.621-.366.948-.539 1.263-.863.907.587-.952v-.816l-.107-.635.362-.7.626-.621-.431-.244.675-.865.817-.136.265.83.25-.8.314-.726-.668.314-.689.018.657-.625.644-.914.567-.428.026-.035.458-.806-.769.492-.279-.352-.149.952-.79.736-.779 1.049-1.03.984.654-1.169.595-.976.289-1.092.3-.955v-.886l.522-.938.316-1.109.021-.925.762-.791-.692-.07-.237-.691.032-.973-.414-.708-.394-.715.06-1.022.229-1.109.219-.771-.268-.589.049-.785-1 .775-1.05.2-.247-.611-.8-.118-.8-.2-.4-.674.724.021.181-.561 1.037-.164 1.082-.555.546 1.521h.738l-.2-1.576-.856-.37-.765-.066-.974.2h-.884l-.619-.178-.675.157-.126.75-.873.052-.7-.048-.8-.381-.911-.321-.842.018-1.309-.876-.8.14-.4-.544-.543-.548-.362-.642-.487-.268-.344-.568-.616-.44-.619-.652.441-.377.756.509.476.649.776.126.508.547.223 1.084h2.291l.669.434.807.141.663.207 1.05-.424 1.026-.481-.22-.365.056-.581-.609.11.81-.948-.124-1.072-.343-.3.723-.6.6-.084 1.01-.835-.77-.287-.027-.615.727-.678.9-.8.907-.591.769-.819 1.216-.106.917.116.61-.116.469.327-.439.785.806.2.217.758.943-.21.749-.625.78-.137-.019-.041-.331-.42-.5-.3.273-.738-.163-.738.33-.992.627-.407.613.016.193-.614.323-.438.76.371.45.5.473.488.01.491-.8.307.047.942.663.02.747-.7.619-.785.947-.577.59-.865.679-.688.963-.164.167.571.323.611.73.054.92-.1.836.31.23.518.889.434.19.655 1.01.281-.223.838-.44.424.25.862-.59.785.423 1.2-.166.932.29.628-.15.724.413.428.3.545-.31 1.332.383.738-.08.836-.213.831.047.912.739-.461.827-.057.5.348-.013.614.763-.033 2.026.411-.5.715.653.15 1.113-.568-.2 1.189-.54.882.147.554 1.283-.454-.813.849.323.394.906-.465.813.618.04.926.4.888.427.812.789.574.447.849-.167.871-.753-.14-.57.451.7.411.523.665 1.073.217 1.03.147.367.734.526.622.663-.611-.49-.772.83-.331 1.969.187.18 1.236.77.972.616.812 1.1.728.969.127.507-1.025.72-.448-.757-1.089.933-.371.82-.755.64 1.183.176 1.206-1.2.407-.007.041-.329.991.51.789.566-.812.253.027.99-.745.027-.986.733-.648-.863-1.032-.294-1.246.713-.888.634-.865.679-.311.1-.263h.042l.547-1.05.17-1.088-.057-.05.017-.08.1-.761.513-.668 1.183-.03 1 .5.45.444-.413.387-.6.652-.58.671-.679-.15-.647.17.087.655-.613.488.1.992.27.875.3.7.113.992-.98.608.614.618.526 1.9 1.043-1.112.44 1.042-.183.785-.347.915.467 1.209.653-.237.156-.771.947-.531.2-1.089.143-1.1.18-.932.877.107.9.4.033.651 1 .334-.133 1.173-.88.4-.123.948.916.558-.32 1.1-1.109.715-1 .7-.683-.287-.448-.662-.168-.01.256.521.36.151.04.059-1.086 1.166-.2.961-1.721 1.723-1.324-.242-.879 1-.17.982-1.929.288-.277.962-.712.167-.709.7-.769.852-1.003 1.495-.438 1.122-.3.972.09.881.729.014.642.318.1 1.256-.217.808.141.912-.171.653.709-.181.892-.168.936.872 1.026.539.889.838.492.951.7.459.9.459 1.026 1 2.34.265.922.6-.461 1.507.014.031.2.857-.087.838-.3 1.009.739.934.219.437-.586.225.717.425.4.193.283.356.357.894.823.738-.057-.687 1.113-.644.792-1-.465-1.056.054-1.028-.044-1.2-.257-.878-.344-.861.929-.469.926-.657.916-.811.608-.844.037-1.367-.414-2.047-.322-1.186-.618-.369-.6-.694.133-.66.709-.154.565-.811.03-.844-.124-1.009-.488-.519.371-.828.284-.81-.548-.517.04-.837.658-.476.957.184.879.349h.648l1.117-.349.738.483.679.656.762.47-.214.67.779.466.755-.041.766.111-.1.851.33.824v1.775l.055.691.574.84.6.119.8 1.151.964-.631.252-.729.687-.614.3-.932-.417-.641.328-.572.382-.754 1.072 1.6.738.945.592.97.681.956.63.593.13.708.611.425-.311.771.188 1.043.571.606.983.349.357.844 1.2-.083.5.631 1.034-.066.659.39-.751.907 1.138-.08.288.833.825-.212 1 .84.025.928.712 1.294-1.043 1.562-1.126.457-.875.761-.341.826-.37.806-.469.83-1.119.226-.882.367-.669-.251-1.562.263-.705-.065-.9.307-1.545.2-.892.477-.454.768-.117.924-.851.084-.782.962-.693.795-.87 1.692-.514.746-.4.743-.524.764.877-.418.516-.75.5-.771.491-.928.7-.795.82-.617.713-.419.8-.631 1.86-.6.889.244.486.474.088.709-.675.645-.6.453-1.292.161.971.969 1.052-.513-.116.935.252 1.232.577 1.011.817.251 1.094.551.92.021.657-.436 1.1.3-.112-.708.641-.648-.989.318-.024-.153.521-1 .281-.98.383.3.077 1.088 1 .52-.659.864-.713.516-.116.75-1.063.572-1.28.771-.844.684-.684.1-.372.775-.612.83-.624.805-.753-.45-.325-.875.258-.928.735-.837.52-.419.823-.861-.883.324.038-.75-.933.869-.88.46-1.024.119.066.733-.643.613-.665.412-.782.443-.372-.338-.416.948-.792.429-.687.394.019.367-.432.745-.324.754.138.538-.334.557.492.32.29.894.728-.049.009.175-.961.428-.015-.366-.587.4-.385-.522-.231.727-.722.4-1.469.049-.732.388-.734.555-.482.717.494.36v.049l-.242 1.036-.489 1.081-.76.715-.378-.711-.5-.37.236 1.081.64 1.252-.384.537-.514.9-.271 1.07-.391.168.274-1.071.252-.71h-.511l.129-.538-.623-.377.255-.879.006-.315.087-.708-.706.356-.282.708.119 1.077.121.715-.845-.191.991.732-1.291.9v.709l1.831.739.288.711.129.9-.435-.2-.577.185-.742.328.4 1.078-.57.886.883.016-.452.527-1.051.147-.748.7-.769.677-.758.139-.915.492-.477.7-.626.669-.936.645-.936.467-.96.824-1.037 2.03.083 1.06.108 1.06.407 1.078.248 1.063.587 1.085-.031.683.846 2.481-.053 1.192-.222 1.2-.529.99-.5.293-.808.123-.288-.879-.78-.741-.424-1.063-.431-.9-.588-.736-.108-.716.369-1-.641.126.049-.7.205-.837-.229-1.068-.452-.23-.7-1.29-.724-.772-.936.059-.8.434-.939.049-.233-.894-.884-.478-.553-.606-1.862.083-.911-.142-.226-.757-.515.442-.887-.321-.759-.132-.971.352-.831-.687-.571.782-.018.035.592.286.779-.064.763.14-.213.492-.5.247-.045.353.827.844-.354.3-.394-.6-.58-.276-.665.213-1.079-.025-.883-.37-.046-.708-.8-.868-.831.349-.87-.384-.839-.534-1.061-.08-.772-.021-.974.29.146-.838-.641.179.289.969-1.367.712-.919-.077-1.012.447-1.009.414-.71.5-.351.959.118 1.1-1.377 1v1.8l-.623.654-.48.843-.5.835-.519 2.739-.461.66.162.99.855.866-.433.512.2.84.385.718.548.754.35 1.015.378.871.562.912 1.906 1.051.584.733.663.149 1.222-.026 1.192.084 1.226-.207 1.178.4-.032.284 1.214-.06-.115-.476.724-.324.706-.185.083-.753.415-.534.248-.73.3-1.022.7-.194 2.051.042 1.049-.152h1.022l.84.272 1.016.142.483.378-.068.75-.93.647-.432.861-.768 2.768-.6.815-.454-.805-.3 1.452-.075.883-.624 1.1-1.092.415.854.432.826.567 1.272-.255 1.2.446h1.063l1.078-.162 1.048.284 1.071-.036.688.233.886.237.854.822.861.361.35.33-.058 1.3-.573.67-.082 1.844-.407.947-.037.841-.375.666.321.734 1.038 1.471.9.625.908.485.332.715.922.072.717.455 1.3-.184 2.213-.408.559-.511 1.1.052.9.3.926.184.922.569 1.449 1.125.926.823.007.685.891-.715.536-.729.379-.133v-.969l.164-.837.5-.557.84-.286.82.132.5-.565 1.341.118.994-.447.656-.443.833-.3.492-.6.649-.454.679.125.324.414-.485.724-.994.332.512.828.348.7-.492.575-.492.854.508.53.167.691 1.175-.337v-2.917l1.2-.331.884-.352.856-.5-.351-.739.852-.509.386 1.192.887-.059 1.058.067.873.38.213.739.351.561 1.242-.254 1.221-.115.881-.234.862-.093.373.407.891-.557h1.22l1.038.316 1.012-.889 3.806-.569-1.708.573.713.481.741.631.678-.251.885.136 1.217.09.394.814-.307 1.073 1.542-.561 1.225.346 2.115.739.382.628-.132.746.835-.314 1.051.334.716.266.046.032.491.407 1.189-.126 1.02-.246 1.009-.4 1.012-.258 1.016-.375h1.917l.672-.031.852.031 1.016.126.86.317 1.015.244.672.209 1.016.507.032.938.678.864.358.952 1.141-.247-.142 1.228-.818 1.046-.648.715-.828.784-.319.862-.188.928 1.169-.739.48.846.327-1.109.007-.619.828-.648.978-.205.974-.458 1.123-.15-.319 1.127-.338.746.48.07.654-1.353.658-.478 1.113-.411 1.1.08.946-.109 1.263-.261.31.38.943-.635.285.5.449.414-.324.858 1.085-.687.936-.763.916-.287.9-.041.908-.412.887-.056.9-.425.9-.68.887-.436.863.059 1.694.06.54.188.553.161.828-.106.526.161.835-.345.849-.607.945-.318.339.576.379 1.294.041.61-.258.987-1.029 1.824-.5.782-.789.951-.516.782-.914.893-.48.551-.683.938-.553.855-.869 1.1-.828.889-.944.843-.337.872-.292.659-.028.514-.168.575-.037.5-.474.787-.369.729-.19.548-.679.635-.33.6-.2.527-.356.592-1.043.924-.48.632-1.051.9-.5.621-.9.875-.226.478-1.892 1.249-.192.387-.839.38-.876.45-.849.37-.815.3-1.183.554.15.17-.856.356-.939.729-.5.088-1.142.68-.939.474-3.744 2.466-.5.892-.083.318-.362.408-.515.453-1.371.733-1.733 1.078-.5.4-1.59.956-2.846 1.283-.491.341-.929.454-.981.4-.285.2-.846.342-.94.338-.865.251-1.089.248-1 .276-.916.16-.48.024-.9.2.789-.311.069-.15-.664.129-.254-.067.612-.293-.431-.01-1.287.168-.174-.085.407.668h.706l.227-.049-.808.278-.431.189-1.928.5-1.134.265zm-28.954-117l-2.119-.118-.557.506-.65-.242-.933.123-.581.67-1.11.445-.922-.09-.723.467 1.023.649.929.088.946-.091.988-.464.953-.3 1.1-.474.95-.489zm-.838-1.866l-.568.879.776.22 1.072-.3.908.039.908.2.933-.151 1.043-.348-.111-1.085.275-.712-.919.332-.525.53-1.037-.2-.783.142-1.037.153zm-6.576-5.437l-1.232-.146-.6-.252-2.289.234-.369-.056-.595.631-1.284 1.64 1.239-.548-.512.84-.23.688-.456 1.224v1.754l-.58 1.242.362 1.154.661.1.7-.247.49-.669.173-1.207v-1.093l.266-1.817.5-.847.379-.868 1.2-.384.63-1.015.744.091.585.439.71.45.3.75-.128 1.252-.877.994-.08.733.71-.663.8-.268.578 2.231 1.1-.446.1-1.276.473-1.047.331-.864-.2-.757.814.976 1.249.628.55-.684-.682-1.321-.679-1.134-1.346-.45-.964-.282-1-.095-.974-.275-.738-.08zm-11.489-3.533l.71.153 1.05-.338.418 1.012 2.352-.663 1.228-.712.714.116-1.083.568-.121.933h1l.469.734.964.146 1.3.931h1.232l-.066-.77.731.087-.254-.945.226-.868-.407-.6.094-.729-1.068-.139-.5-.789-.306-1.136-1.158-.175-.95-.7-.595.628-1.013.373-.609.638-.678.426-1.005.157-.853.582-.964.53zm-8.99-31.292l-.369-.568-.533-.248-.278-.722-.449-.219-.9.558-.724.237-.884.342.745.6.664-.481.856.035.922.439zm2.63 19.364l.484-.8-.56-.356-.728.15.226-1.266.477-.411.237-.674-.554-.931-1.075-.37.021 1.151.672-.341.313.673-.48.408-.362 1.018.525.743.536 1.106-.229.7.191.809-.324.646 1.006.129-.042-.963-.247-.642zm2.431-3.481l.038-1.112-.64-.373-.679-.21-.591.761.156.8-.048 1.113.434.7-.219.677.922.275-.212 1.064.724-.154-.734 1.657-.265.872.849-.143.727-1.3-.264-.991-.146-1.367.017-1.12zm-2.305-8.984l-.636.541 1.172-.14.7-1.66.818-.276-.1-1.168-1.4 1.193-.01.956zm-5.046-24.745l-.967-.056-.7-.08-1.151.673.925.718.578-.449 1.047-.13-.369.628-1.019.576 1.823-.115.2-1.029.8.938.772-.527.72-.387-1.009-.45-.747-.76.806-.073.853-.053-.428-.711-1.26-.049-1.029-.328-.975-.2-1.144-.143.929.631 1.1.537zm-3.426 9.95l.358 1.088.6.363.874.094.313.381.529-.513.876.077.8.045.919-.718.956-.1.99.286v-.593l.955.468-.643-.691-.6-.3-.846-.056-.56.307-.793.394-.623-.15-.393-.635.038-.6-.894-.523-.118.551.038.865-.686-.21-.469.544-.7.2zm41.052 169.712c-.441 0-.881.009-1.323.009a124.6 124.6 0 01-14.075-.8 124.88 124.88 0 0014.826.882h.6zm121.51-115.576v.287l.389.6-.122 1.27.185.046q.105-1.233.186-2.473zm-18.805-75.64l-.77-.681 2.56 3.542q-.874-1.443-1.79-2.861zm20.3 72.474c.021-.536.038-1.074.052-1.611l-.7-.046q-.019.669-.044 1.337zM170.658 67.258l.252-.206-.812-.2-.191.391zm5.8 230.882h.242l.009.017h.214-.133l.275-.01zm72.23-222.225l.807.5.214.085q-.792-.594-1.593-1.176l.162.143zm-135.254 71l.127-.194v-.021l-.191-1.291v-1.171l.2-1.249-.435-.861-.574-.977-.293-1-.549-.049-.188 1.294.487 1.891-.393.366.3.746.06.76.452.388-.31.436.387 1.018.337.746.655.077.026-.145zM175.8 298.166h-.294zm122.271-112.5a123.982 123.982 0 01-100.91 111.355l-.176.257a123.725 123.725 0 00101.787-111.432zM189.22 298.216l-2.8.3-5.152.36c-.146.008-2.717.124-2.717.124l.022.094a124.288 124.288 0 0017.391-1.642l-.03-.215q-3.153.545-6.358.928zm-11.384.894h.184l.053-.1h-.253zm-11.074-141.38l.445.215-.254-.9-.525-.233-.2.075.236.471zm26.282 13.323l-.115-.743-.073.023-.845.129-.912-.219-.219-.715-.289.586.557.47.94.412.2.054.068-.045zM161.1 115.487l.183-.832-.615-.533.936-.655.025-1-.762.192-.658-.377-.737.1-.4.544.091 1.008-.815-.367-.657.07.055.632-.166.739.64.226.229.956.15 1.088 1.012-.394.967-.037zm-101.073 40.7l.108.251.153.142.09-.788-.111-.164-.024-.369-.066.554zm.282-4.14l-.181.645.111.634.254-1.067zm.24-2.787l-.2-.059-.07.474.045.338.275-.359zm237.871 30.721q-.037.95-.09 1.9l-.269-.2-.076.258-.371-1.029v-.664l-.061-2.116-.115-.123-.11-.259-.1.487-.1-.62-.1.61-.092.743-.4 2.478-.159.736-.248.358-.181-.767-.228-.648-.275.113-.235.471-.242.848-.234.978-.228.73-.214.862-.244 1.084-.054.878-1.272 4.98-.211.985-.409.443-.336.586-.53.8-.344.706-.282.713-.4.951-.425.947-.255 1.077-.442.958-.351 1.2-.343.443-.439.426-.564.156-.485.171-.423.044-.54-.1-.679.369-.48-.079-.527.273-.54.266-.609-.13-.266-.453-.2-.549-.224-.691-.453-.226-.554-.126-.507.14-.394-.354-.483-.242-.5.258-.331-.985-.407.679-1.081.222-.232-.961-.119-.921-.333-.851-.493-.515-.567.1.339-.927.071-1 .154-1.083-.337-1.111-.17-2.075-.194-.928-.281-.832-.466-.626-.644-.437.143-.951-.281-.8-.027-.037-.692-.214-.648-.054-.484-1.885.171-.811-.037-1-.225-1.422-.047-.985.013-1.347-.087-1.227-.216-1.294-.174-.925-.258-1.046.028-.725.254-1.025-.052-.862-.278-1.05-.077-1.1.592-1.036.347-1.228-.107-1.1.253-1.13-.058-1.175-.136-1.106-.375-1.256-.534-.258.878-1.367v-.8l-1.97-.983-.351-.538-.039-1.032-.212-1.067.08-.994.22-.956.028-1.22-.612-1.9-.387-.848-.428-1.078.216-.7.542.22.79-.276.15-.621.376-.781.135-.621.609-.314.157-.732.038-1.179-.265-.736-.884-.059v-3.453l.85-.041.208-1.012.146-.935-.016-.826.177-.6.024-.621.194-.708.293-.575.3-.178.038-.719-.206-.851.408-.676-.122-.74.383-.683-.018-.729-.246-.83-.021-.712.184-.506.682.349-.236-1.144.511.848.174.628.758.561.258-.2.521.44.488.868.6 1.716.517.464.265-.3-.049-.655.518.359.363-.422.247-.418.052-.848.254-1.517.3-.426.195-.53.573.649.22.011.059-.014.268-.332.066-.669.132-.869.3-.46.32-.227.021-.558-.244-.753-.326-.764-.04-.021-1.65-2-.593-1.3-.306-.949-.213-.84-.059-.761.052-.54.446.366-.052-.638.013-.558-.18-.757.39.171-.283-.841-.246-1.314.028-.332-.018-.446-.247-.753.014-.457-.323-.74-1.061-1.922-.384-.83-.26-.739.41.467-.059-.356-.439-.554.078-.157-.954-1.838-.553-.753-.745-.935-3.507-3.871-.526-.381-.782-.627-.5-.5-.285-.109-.616-.687-.251-.132.717.882.2.38.089.544.645.8.681.893.226.481.432.659.056.425-.275-.024.062.642.178.607.588.607.651 1.143.02.436-.246.377.233.694-.383-.46.379 1.2-.543-.732-.167.244-.472-.45-.064.335-.052.415-.459-.429.212-.147-.205-.384-.268-.052-.747-.484-.391-.433.383 1.043-.8-.74-.388-.275-.584-.792.271.649-.354.056.044.572.027.568v.485l.641.534.126.575.285-.035.39.454.118.579-.456.153.821.7.5.052.373-.052.407.16.247-.14.122-.306.41.24.112-.31-.063.512.772.628-.317.234.039.61-.358.049.264.984.039.805-.495.028-.623-.146-.413-.066-.529-.074-.293.22-.7-.548-1.44-1.269-.3.3-.425.213-.314.387-.574.213-.581.38-.1.558-.365.007-.369.366-.5-.148h-.379l-.64-.574-.515.353.5.46.251 1.571h-.389l-.526-1.323-.379-.447-.146.447.355.816-.028.439.5.471.4.011.5.561.507.293.522-.084.4-.167.392-.269.63.2.623.864h.369l.372-.759.218-.377v-.949l.61.659.227-.383.33-.4.636-.6.529-.126.488.579-.094.286-.453-.265-.076.491-.212.287.476.669.7.774.32-.3.575.485.254.792.553.481.348.694.332.463-.123.039v.138l-.3-.486.1.445-.552-.679-.344-.593-.571-.4-.571-.2-.455-.29-.23.586-.574-.185-.132.276-.362.2-.484.1-.031.76-.39.276-.636-.021-.64.077-.052.565-.5-.318-.661.066-.654-.226-.755-.5-.2.54-.306.157-.2.447.167.655.46.691.122.837.243.963.4.882-.028.757-.514.317-.3.632-.418.411.236.788.178.97 1.6 1.263.184.9 1.76 1.127v.872l-1.806.736v.062l3.746 7.457.385 1.326.348 1.025-.939 2.044-.233.795-.087.841.2 1.231-.515.313-1.214-.6-.623.177-.275.475-.065.729-.446.422-.3.8-.386-.858-.605-.795-.558-.883-.282.45-.581-.251-.563-.879-.206-.893-.674-1.011-.536-.952-.487-.754-.766-.6-.487-.429-.507-.736-1.048-.467-.177-.642.263-.725-.371-.977.8-.391.39-.69.316-.9.522-.663.589-.443.191-1.13.518-.764.4-.484.1-.663-.207-.574-.8-1.038-.578-.669-1.638-1.779-.735-.321-.584.164-.484-.091-.344-.425-.679-.045-.33-.063-.421.547-.648.22-.236.489-.459.167-.8-.628.156-.666-.031-.715.177-.75.654.133.163-.761.238-.561-.985-.635-.925-.342.236-.561.762.317-.282-2.94-.118-.607-.654-.6-.484-.572-.1-.757-.219-.934-.121-.746-.439-.785-.469-.695-.509-.624-.654-.627-.077-.4.846.569.379-.192-.33-.673-.425-.279-.226.293-.717-.471-.17-.715.174-.83-.372-.569.111-.6.369-.272-.561-.415-.375-.638-.484.038-.251-.467-.623-.046-.88-.509-.514.178-.759-.349-.891-.5-.57-.471-.393-.593-.07-.708-.553-.652-.08-.62.6.3.737.6.592.314.055-.492.591.311.241.725.846.848.848.784.5-.261.438.251.532-.572.561.481.052-.523-.4-.694-.254-.53-.122-.68-.425-.825h.609l.268.762.316-.363.15-.376-.431-.984-.153-.812-.6-.883-.337-.879-.195-.8.78.1h.076l-.052-.516-.348-.579-1.294-1.395-.926-.656-.88-.293-1.041-.415-.636-.5-.95-.621-.269-.67.376-.244.558-.052.041-.426-.539-.568-1.806-.607-.042.412-.724-.056-.768-.248-.574-.666-.63-1.427.1-.61-.258-.83-.557-.429-.814-.781.031-.67-.644.133.327.53-.559.369.271.855 1.476 2.3.3.739-.177.6-.4.23-.376.412-.619-.2-.982-1.564h-.134l-.853-.206-.908-.509-.82-.72-.968-.73-.82-.667-.955-.543-.365-.473-.876-.177-.464.351.227.4.08.373-.06.392.624.376.356.405.435.063.628.442.378-.281.643.553.624.363.5.639.483.54.618.648 1.349 1.071.866.36.867.411.716.209 1.059-.5.562.037.437.329.454.569.25-.133.46.7.6.771.555.344.561.238.138.3.532.485.751.178-.191-.273.7.4.958.746v.967l.681.72.533.2-.032.986-.532-.272-.7-.089-.527-.461-.712.11-.842-.157-.924-.206-.053-.019-.855-.151-.986-.285-.454.155.526.5-.044.357.625.888.491.645.312.821-.252.541-.539.376-.479.073-.681-.449-.469-.648.015.6-.58-.183-.511-.531-.768-.028-.719-.319-.738-.26-.492-.565-.611-.073-.464-.774-.473-.695-.636-.765-.023-.689-.52-.569-.69-.575.485-.171-1.368-1.3-1-.8-.545-.708-.869-.55-.738-.493-.728-.429-.747-.519-.75-.682-.741-.392-.918-.859.294 1.2.595.749-.746-.622-.3-.772-.461.165-.454-.582-.612-.575.918.361-.467-.446.6.107-.628-.606-.13.252-.623-.151-.325-.594-.9-.549-.055-.052-.049-.544-.017-.047-.4-.679-.835-.512-.545-.522.366-.35-.662-.341-.407-.408 1.084.164-.741-.518.728-.032-1.176-.515.092-.559.271-.452.268-.417.81.569.048.559.4-.524-.086-.569-.46-.4.1-.44.577.025-.162-.65-.043-.607.129-.537.3-.462.265-.471.111-.474.246-.441.439.189.871.629.595.686.058.622.182.582.119.535-.179.557.017.657-.423.482.825-.252.254-.456.512-.535 2.706.255.111-.643.416-.571-.466-.8-.933-.07.28.471-.5.413-.785-.309-.129-.5.122-.539-.025-.5-.311-.708-.707.273-.574.277-.931-.5-.853-.582-.892-.374-.251-.564-.036-.427-.839-.3-.892.047-.022.374-1.039-.13-1.047.072-.4.521-.182-.653-.478-.586.2-.334.558-.284.649.586 1 .247-.114-.5.372-.313-.463-.528-.824-.391-1.018.111-.7-.42-.944-.471-.819-.33-.811-.453-1.731-.665.767-.212.094-.488-.7-.032-.661-.399-.463-.5-1.01-.248-.756-.3.863-.262-.3-.352-.5.158-.5-.234-.7-.111-.146.392-.32.3.173.513-.069.352-.759-.028.053-.629-.39-.769-.595-.506-.161-.582-.5-.41-.233-.47-.454-.482-.015-.431-.236-.438-.939.133.176.409-.308.478.343.41-.426.2-.785.137-.237.427-.645.223-1.125-.154-.81.15-.721.32-1.641.323-.778-.143.123-.392.479-.111-.541-.582.384-.273.655-.2.047-.02.828-.161-.025-.547 1.126-.732.705-.381.56-.345-.223-.586.731-.15.459-.273.943-.051.853.022 1.343.266-.318-.618-.964-.173-1.108-.133-.817.1-.706.018-.358.621-.564.311-.874-.084.975.5-.456.474-.626.307-.741.164-.136.44.039.418-.874.231-.709-.095-.627.147-.3.293.239.411-.348.056-.208-.5.366-.464.667-.237.509-.391-1.636-1 .084.314.63.519-.116.45-.65-.059-.245-.38-.508.014.473.561-.675.046-.2-.367-.587-.2-.432-.426-.275-.544-.905-.094.073.485.668.4-.42.44-.213.61-1-.22-1.058-.2-.967-.073-1.054-.154.014.468-.268.327-.707.217-.821.2-2.049.1-.7.272-.766-.105-1.231.143.268-.345-1.462.063.143.387-1-.063-.073.569-.769.453-.755.37-.833-.344h.774l-.87-.04.1.04-.742-.078.508-.593-.724.021-.145.3-.713.032-.815-.039-.677-.139-.656-.32-.309-.451-.078-.561.561-.427.758-.53.724-.4.751-.487.657-.188.045-.018.394-.441-.688.018-1.585.423.457.238-.361.292-1.191-.263-.614.057.22.419-.684-.554-.656.259-.635.167-.879-.057-.861.142-.1-.433h-1l-1.255.17-.747.256.5.243.117.346-1.044.257-1.373.087-1.078.124-1.138-.211-.236-.5.1-.5-.833-.288-.923-.146-.733.066-.173.43.235.388.2.413-.947-.128-.72.083-.093.332-.391.271-.667.079-1.006.555-.986.378.768.159.567.149.062.3-.747.378.657.1-2.621 1.1-1.11.319-.8.523-.855.337-.8-.219-.681.1-.432.319-.768.177-.508-.163-.373.44-.5.406-.384.61-1.466 1.05-.758.256-.217.007-.488-.348-.928.443-.664.712-.549.821-.8.761-.773.606.214.356.4.316-.7.54-.38-.145.309-.442h-.629l-.653.481-.692.106-.134.429.278.3.917-.19 1.082.039-1.641 2-.376.754-.784.658-.59.666-.72.609-.193.14-.036.009-1.655 1.134-.713.764-.851.719-.78.588-.907.444-.172.793-.485.968-.917.7-.917.828-.436-.345-.608-.155.113-.694-.984.236-.577-.222-.787.035.471-.743.808-.849.615-.585.847-.271.492-.687-.183-.366.327-.546.882-.332.829-.218-.435-.468-.787.5-.865-.116-.145-.138-.01-.027-.148-.229-.242-.508.467-.76-.79.1-.229.531-.692.254-1.009.314-1.05.436-.728.4-.6-.317.7-.652.355-.8-.221-.44v-.974l-.822-.422.132-.492-.316-.429-.282-.436-.23-.5-.073-.516-.7-.133.79-.411.727-.5.567-.635.1-.481-.08-.415-.352-.387.954-.073.177-.541-.24-.349.595-.4.2-.537-.56-.073-.515-.129-.3-.359-.382-.237-.745.153-.049.324-.748.44-.341-.29-.644.06-.5.317-.87.209.007-.272.644-.338.069-.331-.386-.179-.8.154-.9.384-.09-.255.466-.387.3-.52-.129-.307-.647.032-.651.153.564-.561-.021-.067h-.675l-.39-.554-.083-.352.115-.426.577-.2.539-.087.734-.157 1.054-.349.846-.143 2.435-.52.637-.087.734.018 1.016.285-.254.433.362.2.595-.118-.473.432-.157.478.115.474.174.419.376.251.122.527.239.408.334.2-.034.468-.209.523.414.143.852.084.672.095h.063l.069.4.449-.206.324-.7-.508-.13h-.661l.222-.408-.2-.359-.132-.415-.032-.513.675-.15.568-.042.608.321.24-.5.648-.384.431-.537.369-.593-.463-.757.028-.467-.254-.332-.473-.24-.585.387-.6.185.713-.7.619-.387.07-.258.459-.551.515-.387.529-.115-.115.366.595-.157.272-.293.615-.352.742-.338.285-.283-.258-.087-.149-.08.633-.339.5-.415.968-.446.174-.352.48-.14 1.621-.952.776-.506.31-.383-.07-.241.338-.38.02-.286-.042-.234.289-.335.307-.39.149-.311.084-.38.281-.4.373-.377.313-.383.577-.384-.309-.014-.877.269-.731.362-.375-.069-.386-.063-.056.258-.557.293-.4-.06.059-.209-.832.475-.132.355-.7.335-.866.325-.338.014-.772.24-.863.293-.157-.172-.346-.017.158-1.044h-.686l-.213.795-.11-.114-.4-.045-.571.056-.556.024-.2-.077-.282-.059.034-.036a123.071 123.071 0 0142.847-9.575l-.733.177-.473.188-.031.178-.129.223-.233.213.535.038.268-.118.056-.129.734-.349.376-.157 1.515-.329q1.656-.045 3.324-.045a123.1 123.1 0 0171.133 22.5l.03.082.041.2-.209.017.758.639.7.467.394.146-.241.039-.392-.136-.808-.513-.126.028.645.6.066.282-.449-.1-.223.136.324.44-.379-.188-.6-.6-.358-.406h-.387l-.932-.651-.8-.68-.237-.394-.654-.53-.556-.488.017.181-.421-.087-.456-.052-.045.265.111.366 1.027.966.33.387 1.183.8.668.611.706.579.258.038.522.474.633.373.338.523 1.659.97.811.52.428.174-.119-.293.351-.049.944.412.268-.105.142-.16-.07-.255.192-.077.341.084.028-.23-.362-.457.574.53.689.52 1.18.767.392.415 1.066.555.473.265-.046-.059q3.513 3.019 6.8 6.292a124.589 124.589 0 0115.68 19.527l-.062-.073-.19-.143-.064.038-.654-.4-.177-.046.324.635-1.183-1.517-.5-.541 1.521 2.009.393.457.32.509-.055.168-.129.042-.223-.15-.18-.049-.359-.234-.334-.244.317.5.278.136.369.352.271.15.206.035.129-.038.333.345.168.066.327.363.242.147.269.265.271.254.2.164.25.262.049-.046.107.163a123.675 123.675 0 0117.714 63.983q0 1.821-.054 3.631l-.85-.056v.768l.013.257zm-67.282-96.89l-.187-.348-.443-.332-.6-.084-.285.227-.5.087-.779-.149-.248.324-.038.457.344-.157-.027-.314.592.08.229.443.81.23.334-.16.067-.415zm3.263 3.513l-.128-.307-.526-.283-.237-.544-.7-.356-.589-.114-.508.122-.083.415-.335.2.192.471.615.5.5.216.442-.286.661-.084zm5.522-16.044l-1.458-1.067v-.066l-.923-.586-1.168-.618-.525-.16-.55-.342-.63-.321.017.15.1.251-.267-.066-1.534-.683.991.551.08.139.9.541.365.09.17.2.717.307.526.38.445.282.554.2.9.46.554.178.108-.038zm25.178 30.97l-.001-.53-.151-.676-.423-.852-.136-.583-1.79-2.359-.582-.895-.193-.579-.367-.744-.391-.619.273-.1-.394-.737.376-.025-.258-.468.025-.348-.376-.529-.112-.421-1-1.391-.309-.579-.519-.683-1.573-1.579-.507-.327-.254.032-.445-.111-.05.143.129.526v.348l-.125.169-.247.237-.037.346.188.456-.025.23.006.32-.333.029.194.342.455.668.1.286-.364-.459-.327-.59-.248-.6-.956-.743-.9-.757-.049.216-.219.087-.29-.485-.817-.756-.466-.6-.046.216.46.6.612.858.9.934.526.785.713.817.717.648.525.691.083-.213.352-.021-.014-.305.509.563.387.585.542.54.51.665-.2.158-.706-.492-.09.219.04.493-.832-.752-.592-.829-.1.417.542.745-.042.593-.621-.507.541 1.3.742.583.693.7.485.759.731.313.588.471.437.68.642.654.617.356.782.543.352.73.771.546.635.78.463-.086.534.205zm1.961 2.31l-.683-2.083-.309-.142-.324-.646-.187.325-.031.038.253.743.379.921.466.621.634.9zm29.181 53.066l-.111-.987-.077-1-.247-1v.746l-.052.743-.171-.491-.184-.136-.066.624.066.76.187.122.223.377.14-.119.163.363zm-156.007 103.87l.7-.352-.522-.743-.707-.774-.163.729.685.523-.682.234zm158.775-78.385l-.68-.513c-.024.44-.049.88-.078 1.319l.729-.309c.01-.166.018-.331.029-.497zM58.959 157.924l-.188.018-.247.886-.2.352-.017.617.184-.122.174.1.146.335.205-.007.035-.558.136-.523.01-.541-.014-.519.007-.541zM99.751 96.7l.386-.039-.428-.359zm-.226-1.553l.393-.509-.369.018zm1.318 6.234l.432-.209-.1-.391-1.235.014zm1.117.411l-.577.285-.56-.163.257.463.327.353.522-.262zm139.545-3.845l.263.15-.205-.292-.765-.31-.453-.51.193.422.267.113zm-111.791-35.84l-.072-.15-.049-.192-.029-.029-.131.493-.508-.014-.689.185-.515.049-.418-.035-.588.066-.5.028-.324-.017-.129-.074-.438.126-.588.138-.538.246.3-.007.135.108.23.024-.115.185-.553.31-.894.391 2.192-.527 1.409-.233.786-.15.435.059.532.018.707-.353h.619l.6.161.337-.238-.7.1-.01-.157.1-.635h-.072zM99.994 93.73l.359-.481-.616.387zm172.136 25.979l.131.567.1 1-.017.7-.248.3-.027.6.3.82.578.111.024-.4.463-.408.136-.5h.43l.107-.724-.431-.6-.428-.206-.661-.8-.264-.428v.26zm-34.277-26.146l.391.254.281.031-.288-.526zm-4.4 16.985l.251.432.5.042zm-4.753 2.092l-.439-.84-.219.694.323.383zm21.369 10.8l-.139-.945-.047-.081-.692-3.343-.26-.929-.619-.74-.629-.174-.464-.151h-.067l-3.45.325-.062-.011-.766-.226-.912-.474-.678-.136-.532.342-.247.537-.241-.719-.417-.739-.6-.785-.491-.6-.623-.338-.285.652-.24.519-.126.694-.6-.781-.282-1.037-.5-.175-.189.789-.348.694.6.777.4.74.142.13.032-.18h.6l.278.66.672.977.574.443-.042-.68.675.607.261.969.257-.474.55.432-.472-.942.722.1.8 1.091.707.171-.7-.847v-.844l1.312.816.712.077.2-.429.569.823.7.54-.1.611-.519.69.482.185.389.736.257-.516.811.666.052.67.136.864.476.189.157-.722.365-.331.616-.119-.129-.928.522.841-.462.983.477.956.285.91.253 1 .366-.349-.244-.991.627-.551-.575-.711.144-.743zm-34.824-7.625l-.916-.111-.538.234.393.369-.366.325.48.551.181.781.547-.251.212-.652.616-.1.115.886-.161 1.1.812-.729 1.106.446.215 1.032 1-.945.95-.185.939-.47.032-1.092.337-.638-.11-1 .205-1.1-.48-1.141-1-.76-.867.223-1.03-.722-.264.6-.682-.028.292.75-.065.628-.6.115-.338.642.2.568-.7-.059.767.757-.318.8zm54.061 57.2l-.254-.381-.372.2.024.443.345.279zm-1.475-.314l-.15.725-.285.464.536.286.1-.582zm-93.655-44.571l.56-.5.139-.84-.4-.659-.937-.011-.646 1.144.313 1.008zm70.034.744l.665-.066.333-.837.137-.9-.137-1.12.314-.931-1.173-1.423-.849-.61-.758-.426-.236-1-.9-.523-.692-.168-.449.426-.48.5-.083.837.458.907.523-.171.239.618-.651 1.013.392.673.537-.171.125.771.793.055.265-.418.517 1.133.641.931-.324.5zm-68.138 92.783l.264 1.259.738-.75zm35.165-146.928l-.692-.056-.045.607.838.213.735-.234zm-38.258 121.434l.731-.345.285-.7zm0 22.307v-1.481l-1.159-.775zm7.567 4.943l-.734.484 2.008-.076zm-1.472-40.4l-.8.39-.815.195-.96.21-.125.54 2.175-.411 1.078-.575zm-1.322 41.926l-.337.5 1.009-.021.334-.82-.338.5zm94.891-117.323l-.376-.607-.529-.586.574.987zm-28.117-1.186l.14.565.779.126.062-.541-.563-.356zm1.744-.481l-.268-.373-.192.355.112.6.466-.049zm-1.4-1.05l-.385-.569-.724-.23.623 1.524.9.328.166-.439-.229-.656zm24.227 1.259l-.337-.251.187.369zM136.652 60.22l-.584.115-.122.311.765-.244zM238.72 93.981l.6.583.373-.122-.88-1.05zM120.226 76l-.588-.174.032.694.494-.147zm151.106 25.893l-.355-.419-.234-.488-.2-.053-.821-1.077.525.837.718 1.256.337.463.359.68.3.126-.209-.611zm-3.682 30.637l.223 1.242.278-.439.432-.088-.422-.945zm1.824-6.054l.664.753.54-.056-.4-.83.068-.5-.532-.725-.566-.625-.586-.53-.587-.422-.658-.045.38.99.065.5-.173.174.477.432.618.238zm.407 42.005l-.143.447.084.614.215-.541zM168.5 213.724l-.408.138 1.229.305-.241-.419zm105.761-102.336l-.017.384.257.718-.188-.091.06.639.528.558-.136-.621-.031-.516.122-.21-.247-.864-.272-.869-.368-.4.376.8-.307-.272zm-4.151 59.925l.236-.784-.524-.987.065 1.346zm3.084-58.46l.323-.133-.681-.334-.509-.269v-.506l-.574-.132-.216.328-.121.415.323.784.48.667.342-.238.56.565.288.074-.087-.5.369.063zm-38.094 3.631l.219 1.042.578.443.313.516-.358-1.175zm-70.278-10.1l.64.562.807.429.519-.3.069-.422-1.057-.311zm-1.886 4.716l.525.5.742.485.354-.955-.146-.723-.591-.153zm3.25-9.124l-.467.369.515.447zm-10.8 12.38l.241-.785.946-.621.647-.526-.153-.66-.856-.3-.988.648-.87.7-.459-.949-.828-.076-.271-.663-1.125.213.536-1.043-.556-.321-.814.171-.856-.077-.822.077-.4.429-.779.143-.7.6.3.771-.64.419.132.777.783.684.821.411.4.879-1.076-.013-.845-.5-.759-.345-.65 1.109.389.847.839.492-.431 1.349.97.36 1.18.373 1.3.056 1.058.1 1.05-.275.248.875.563.841.981.09 1.014-.278v-.8l.858.133.522-.82-.919-.708-.643-.823-.24-.917.689-.977zm11.338-5.544l-.835-.182-.438-.628-.762-.411-.314.617.244.886.943.077.369.565-.08.774-.432.719-.216.924.975.628.995.293.922.237 1 .132.724-.544.779.551 1.041-.24.407-.747.069-.729-.883-.53-.794-.073-.887-.286-1.1.3-.988-.387-.581-.638.352-.3-.425-.464zm-8.7-3.929l.449.443.912-.077.609-.666-.407-.185-.613.007-.637-.083zm1.5-2.353l-.585.23.672.259.191.383.55.213.456-.164-.407-.628zm10.946 35.156l-.832-.048-.191 1.192.39.544.494-.847zm-1.029-3.142l-.894-.579-.376-.893-.609-.732-.964-.792-.762-.928-.118-1.039-1.016.708-.379.809-.374 1.144v1.224l-1.095.694 1.26.182-.105 1.025.912-.049.762-.781.654-.61.7.073.724.582.72.74zm-2.976 2.309l-.452.805.859-.076 1.006-.782.02-.163-.65-.06zm3.57 13.424l-.265-.544-1.036.645.706-.129-.856.823.7.042.431-.513-.056.893zm3.219-52.641l-.578.538-.762.352-.56.275-.09.356-.693-.112-.678.625-.126.879.414.669.944.14.734-.147.97.087 1.044-.157-.7.478-1.065.206-.487.342-.71-.391-.535.918.5.373-.17.8.1.7-.63.139-.922.932.773.575h-1.117l-.195.733.386.38-.6.129-.78.425-.215.74.82.31 1.264.331.647-.24.643.237.6-.265.216.631 1.068-.4.675-.728-.671-.8.783-.572-.115-.624.984-.122.373-.907v-.9l.393-.9.956-.422.488-.879.344-.7.616-.712.626-.907-.077-.432.408-.551.264-.489-.111-.369-.546-.139-.508-.363-.773-.119-.713-.22-.717.035-.518.181-.609-.125zM175.6 70.84l-.81.182v.6l.438.415.623.321.452-.191.745-1.071.3-.468-.789.248zm3.51 1.9l-.163-.548-.794-.289-.609-.262-.643.049.052.516-.344.5.285.429.574.261.115.429-.247.293.292.352.195.346.922-.307.359-.492.737-.422-.042-.53zm-24.532 32.251l-.776.035-.689.31.24.411.553-.285zm-3.086-31.121l.435.412.915-.38.894-.447.557-.1-1.006-.164-1.291.321zM188.6 230.51l.665-.869-.891-.742-1.7-.192.815-.544-1.176.08-.369-.642-1.18-.087-1.019-.1-1.361.062-.664.342-1.186-.453-1.2.031-.665.506 1.016-.021.519.649.01.645.874.791-.856.509-1.027.025-.863-.31-1.026-.144-.675.493 1.382.624.323-.335 1.03-.02.863.153.859-.2 1.03.139.863.927.678-.84-.01-.485 1.015-.38.015.481 1.019-.212 1.173-.405 1.023-.073zm-14.883-2.986h1.016l.671-.247.209-.034-.536-1.107-1.012-.177-.689.171.188-.827-1.855-.362-1-.677-.839-.36-.814-.526-.988-.538-.992-.362-1-.052-.654-.716-.8-.369-.821-.4-.988-.07-.974-.419-.989-.084-1 .251-1.994.147-1.019.39-.683.426-.045.655-1.009.22 1.305.154.379-.635 1.148.123.7-.429.682-.437.981.275 1.319.273-1.009.254.633.555.988.241 1.5.108.641.544.835.209.991.394 1.006-.108.334.332.142.84.992.694 1.517.049.334.68-.7.471-.515.474 1.361.042 1.019-1.85h1.017zm18.221 1.786l-1.2.119.045.966.863.07.845-.245.835-.09.48-.541-.695-.408zm.184-65.788l-.852-.241-.943-.035-.918.126 1 .408.425.485.855.223.957.049.8-.132-.581-.649zm-23.259 53.292l-.487-.021.139.7-.5.488.964.869.473 1.029.348-.657-.48-.686.017-.687zm1.093 13.152l-1.023-.188-.866.3-.171.3.675.028.668.68.863.178.682-.311.7.192.682.011-.345-.663-.838-.328zm-11.672-120.524l.553-.7.576-.6-.431-.506-.332-.813.3-.864-.6.181-.709.363.2.432-.428.373-.1.673-.787-.554.19-.68.007-.558-.3-.74-.48-.4-.722.346-.933.491-.819.471.411.555.235.519.8-.177v.756h-.805l-.069.468.463.446.632.091.788-.192.774-.052.908.537zm.737 114.25l.667-.136-.268-.6-.417-.364-.421.38.219.36-.215.24zm11.648-9.484l-.891-.851.484 1.867zm-19.821-107.79l-.978-.1-.947-.31-.647 1.022-.911.649-1.942.83-.021 1.095-.56 1.133 1 .116.693.279 1.165-.443 1.149-.862 1.144-.07 1.009-.031 1.072-.056-.24-.935.142-.917-.783-.526zm6.979-3.065l.334.083.383-.527-.651-.017zm-4.5-.172l-.874-.045-.222.816.49.248.352.488.9-.2.7-.324.237.638 1.089-.3.351-.62.738-.126-.1-.638-.717.195-.529-.425-.665-.028-.8.08zm6.219 5.819l-.6.492.577.21zm-5.094-38.343l-.191-.359-.807.073-1.051.46.424.234 1.135-.025z" />
  <path d="M74.5 310.253l-5.4 4.177-12.138-10.116 2.395-6.613-6.24-6.693-6.7 2.59-10.2-11.8 3.663-5.883-4.846-7.691-7.434 1.029-7.934-13.735 5.06-4.643-4.388-9.285-6.538 1.193-5.523-14.79 5.376-4.924-2.138-8.543-7.188-1.386-2.754-15.079 5.643-3.554v-9.42s-5.151-1.5-7.216-2.256V167.4c1.737-.68 3.849-1.4 6.3-2.236L7.19 156l-6.124-4.056 2.721-14.923 7.116-1.511 2.357-8.671-5.473-4.327 5.151-14.816 6.932.445 4.43-8.991-5.054-4.692 7.965-13.932 6.82 1.45 5.552-7.615-3.9-5.848 10.047-12.07 6.559 2.5 6.741-6.369-2.588-6.674 11.842-10.249 5.846 3.74 7.744-4.973-1.095-7.372 13.765-7.929 4.656 5.066 9.285-4.442-1.186-6.531 14.933-5.573 4.463 5.388 8.9-2.068 1.422-7.25 15.1-2.762 3.595 5.931 9.363-.462C165.724 4.409 167.2 0 167.2 0h15.751l2.106 6.349 9.245.867 3.735-6L213.2 3.773l1.264 7.021 8.85 2.573 4.286-5.546L242.388 13l-.447 6.979 8.548 4.168 5.39-4.731 13.666 7.854c-.494 2.2-.977 4.362-1.521 6.79l7.69 5.57 5.782-3.972L293.571 45.8l-2.683 7.035 7.391 5.92 5.743-2.327L314.293 68.3l-3.793 5.863 5.08 7.772 7.168-1.349 8.043 13.91-5.09 4.7c1.59 3.3 3 6.224 4.468 9.261l6.525-1.148c1.859 5 3.6 9.7 5.524 14.859l-5.392 4.5 2.092 8.891 7.248 1.416 2.717 15.11-5.92 3.527.5 9.351 6.537 2.171v15.6l-6.326 2.127c-.279 2.853-.566 5.785-.9 9.24l6.132 3.841-2.731 15.081-6.966 1.278-2.581 8.822 5.584 4.341-5.2 14.819-6.923-.5-4.193 8.5 4.7 5.479-7.8 13.66-6.821-1.47-5.545 7.615 3.916 5.866-10.067 12.1-6.493-2.584-6.752 6.391 2.629 6.661-11.8 10.218-5.888-3.693-7.715 4.917c.349 2.388.7 4.819 1.081 7.4l-13.8 7.972-4.521-5.135-9.335 4.442 1.218 6.542L228 342.239l-4.462-5.394-8.865 2.034-1.371 7.26-15.073 2.76-3.672-5.869-9.25.415L183.1 350h-15.539l-2.155-6.31-9.159-.922-4.018 6.135-14.881-2.7-1.535-7.137-8.621-2.374-4.38 5.509-14.724-5.169.434-6.9-8.937-4.457a9494.848 9494.848 0 01-4.729 5.042l-13.864-7.9 1.409-6.937zM175.111 52.4c-68.226 0-122.623 54.189-122.623 122.636 0 68.16 54.243 122.585 122.615 122.585a121.927 121.927 0 00122.6-122.593C297.707 106.749 243.4 52.4 175.111 52.4z"/>
  <path fill="#ffffff" d="M66.528 71.019l13.2 11.849-4.944 5.507-13.2-11.848-3.784 4.219-5.318-4.774 12.504-13.931 5.314 4.773zm6.5-16.062l4.933 5.785a5.864 5.864 0 011.819-3.2 5.088 5.088 0 014.4-1.26 7.888 7.888 0 014.5 2.9l7.475 8.767-5.188 4.423-6.233-7.31a3.359 3.359 0 00-1.2-1.034 1.038 1.038 0 00-.989.316q-.873.745.226 2.035l6.411 7.519-5.188 4.423L67.843 59.38zm35.724-4.676l-8.73 5.533a4.778 4.778 0 01-1.651-2.774l2.926-1.854a2.144 2.144 0 00-3.008-.489 2.474 2.474 0 00-1.175 2.029 4.558 4.558 0 00.811 2.777 4.848 4.848 0 002.187 2 2.383 2.383 0 002.3-.165 2.711 2.711 0 001.116-1.916l5.778 1.863a9.529 9.529 0 01-3.955 5.032 9.3 9.3 0 01-7.2 1.346 9.585 9.585 0 01-7.181-11.39 9.327 9.327 0 014.292-5.98 9.184 9.184 0 0112.87 2.871q.215.336.622 1.117zm29.483-29.6l5.706 16.986a7.585 7.585 0 01-.177 5.829 6.915 6.915 0 01-4.286 3.67 6.466 6.466 0 01-6.719-1.454 8.21 8.21 0 01-1.7 3.425 7.158 7.158 0 01-3.111 1.9 6.354 6.354 0 01-5.546-.368 9.184 9.184 0 01-3.632-5.2l-5.509-16.4 7.016-2.356 5.154 15.345a4.2 4.2 0 00.687 1.442.78.78 0 00.856.116q1.037-.348.451-2.093l-5.195-15.466 7.015-2.357 5.155 15.345a4.029 4.029 0 00.689 1.422.791.791 0 00.871.131q1.036-.348.41-2.215l-5.149-15.343zm12.881-2.019l1.124 7.518a5.869 5.869 0 013.24-1.756 5.083 5.083 0 014.4 1.259 7.881 7.881 0 012.281 4.838l1.7 11.394-6.742 1.008-1.421-9.5a3.362 3.362 0 00-.475-1.514 1.035 1.035 0 00-1.006-.255q-1.136.169-.885 1.847l1.461 9.771-6.743 1.008-3.68-24.609zm32.8 14.911l-10.335.094a5 5 0 01-.25-1.438 5.053 5.053 0 01.311-1.79l3.464-.031a2.144 2.144 0 00-2.3-2 2.474 2.474 0 00-2.068 1.1 4.55 4.55 0 00-.777 2.787 4.85 4.85 0 00.8 2.855 2.383 2.383 0 002.042 1.075 2.712 2.712 0 001.96-1.039l3.925 4.631a9.533 9.533 0 01-6.014 2.188 9.3 9.3 0 01-6.824-2.654 9.071 9.071 0 01-2.814-6.7 9.128 9.128 0 012.718-6.77 9.332 9.332 0 016.8-2.815 9.182 9.182 0 019.417 9.23q.013.404-.053 1.279zm19.919 2.559l-10.246-1.36a4.989 4.989 0 01-.045-1.459 5.071 5.071 0 01.56-1.728l3.434.456a2.144 2.144 0 00-1.993-2.306 2.475 2.475 0 00-2.2.8 4.556 4.556 0 00-1.161 2.65 4.84 4.84 0 00.392 2.939 2.379 2.379 0 001.871 1.352 2.709 2.709 0 002.085-.753l3.235 5.137a9.526 9.526 0 01-6.262 1.32 9.3 9.3 0 01-6.383-3.587 9.073 9.073 0 01-1.843-7.031 9.128 9.128 0 013.644-6.32 9.329 9.329 0 017.13-1.83 9.184 9.184 0 018.025 10.463q-.053.402-.241 1.259zm12.911-14.008l-5.963 24.157-6.619-1.633 5.963-24.158zm19.286 14.35L228.5 52.532l-6.7-3.144 10.571-22.525 8.73 4.1q5.744 2.7 7.77 6.828a11.381 11.381 0 01-.111 10.278 12.351 12.351 0 01-7.219 6.8 12.853 12.853 0 01-10.017-.754q-.61-.287-1.966-1l3.106-6.618 1.073.5q5.857 2.748 8.158-2.152 2.16-4.6-3.6-7.307zM263.255 63.9l-8.5-5.884a4.775 4.775 0 011.912-2.6l2.848 1.972a2.145 2.145 0 00-.722-2.961 2.475 2.475 0 00-2.326-.291 4.554 4.554 0 00-2.242 1.829 4.842 4.842 0 00-.992 2.794 2.382 2.382 0 001.048 2.056 2.712 2.712 0 002.2.282l.536 6.047a9.539 9.539 0 01-6.175-1.681 9.3 9.3 0 01-4.044-6.1 9.584 9.584 0 017.691-11.06 9.328 9.328 0 017.179 1.622 9.184 9.184 0 012.372 12.972q-.226.326-.785 1.003zm8.257 9.17l-4.823 5.149a8.918 8.918 0 01-1.217-.94 9.339 9.339 0 01-3.145-6.642 9.5 9.5 0 0116.013-7.231 9.323 9.323 0 013.313 6.637 9.6 9.6 0 01-2.961 6.881l-6.092 6.507-4.976-4.661 5.757-6.147a3.514 3.514 0 001.058-2.156 2.311 2.311 0 00-.792-1.915 2.683 2.683 0 00-4.488 1.965 2.415 2.415 0 00.819 1.766 3.088 3.088 0 001.534.788zm26.009 1.477L278.6 90.706l-4.427-5.185 18.922-16.158zM145.9 302.779l-7.2 23.821-6.7-2.025 5.5-18.182-4.749 5 1.466.443-1.566 5.183-9.3-2.811 12.1-14.586zm13.637 2.076l-3.6 24.621-6.981-1.02 3.6-24.622zm19.889 26.481l-6.554-2.289 4.8-13.618a3.3 3.3 0 00.2-1.058 2.289 2.289 0 00-.736-1.693 2.4 2.4 0 00-1.735-.7 2.29 2.29 0 00-1.7.727 2.522 2.522 0 00.013 3.491 2.327 2.327 0 001.726.7 5.175 5.175 0 00.692-.076l-2.925 7.158a14.192 14.192 0 01-5.6-3.843 8.491 8.491 0 01-1.726-5.407 9.446 9.446 0 019.5-9.608 9.164 9.164 0 016.619 2.754 8.823 8.823 0 012.861 6.488 18.043 18.043 0 01-1.31 5.4zm26.57-10.77l1.042 7.125-15.909 2.326 5.929-16.527a2.459 2.459 0 00.154-1.22q-.214-1.461-1.928-1.21a1.715 1.715 0 00-1.417 1.9 1.875 1.875 0 00.85 1.276l-2.334 6.089a8.688 8.688 0 01-3.5-2.675 8.781 8.781 0 01-.059-10.483 8.65 8.65 0 0112.127-1.8 8.409 8.409 0 013.389 5.732 8.238 8.238 0 01-.361 3.958l-2.091 6.109zm15.669-22.866l.271 25.912-7.242 2.189.261-18.608-7.294 2.2-2.067-6.84zM450.5 88.428v33.332h-13.908V88.428h-10.653V75h35.181v13.428zM478.111 75v14.285a11.03 11.03 0 016.509-2.364 9.556 9.556 0 017.827 3.563q2.895 3.563 2.895 9.626v21.65H482.53v-18.053a6.285 6.285 0 00-.463-2.946 1.942 1.942 0 00-1.8-.754q-2.159 0-2.158 3.186v18.567H465.3V75zm58.27 31.756h-19.424a8.976 8.976 0 01.172-6.064h6.508q-.686-3.8-4.282-3.8a4.649 4.649 0 00-3.9 2.038 8.557 8.557 0 00-1.507 5.224 9.1 9.1 0 001.456 5.378 4.476 4.476 0 003.819 2.056 5.1 5.1 0 003.7-1.919l7.3 8.77a17.923 17.923 0 01-11.339 4.008 17.479 17.479 0 01-12.778-5.1 18.011 18.011 0 01.052-25.316 17.53 17.53 0 0112.829-5.172 17.257 17.257 0 0117.539 17.505q-.008.747-.145 2.392zM573.231 132.4v100.2q0 18.756-11.315 30.58T532.662 275q-21.612 0-33.026-19.673-7.034 10.6-15.086 15.137T464.673 275q-18.756 0-28.745-11.824t-9.989-34.046V132.4h41.384v90.516q0 6.727 1.07 8.868t4.333 2.14q6.115 0 6.116-10.295V132.4h41.384v90.516q0 6.523 1.121 8.766t4.383 2.242q6.117 0 6.116-11.008V132.4zm60.344 0v42.5q9.682-7.032 19.367-7.033 14.678 0 23.292 10.6t8.613 28.643v64.421h-38.123v-53.715q0-6.522-1.376-8.766T640 206.807q-6.423 0-6.422 9.48v55.247h-38.126V132.4zm173.387 94.491h-57.8a26.7 26.7 0 01.51-18.042h19.367Q767 197.532 756.3 197.531a13.834 13.834 0 00-11.62 6.065q-4.486 6.066-4.485 15.545 0 9.888 4.332 16a13.323 13.323 0 0011.366 6.116q5.707 0 11.008-5.708l21.712 26.1a53.324 53.324 0 01-33.74 11.926q-22.629 0-38.02-15.188t-15.392-37.613q0-22.323 15.544-37.715t38.174-15.392q22.117 0 37.154 15.035t15.035 37.053q.001 2.245-.406 7.133zm115.693 0h-57.8a26.7 26.7 0 01.51-18.042h19.367Q882.7 197.532 872 197.531a13.835 13.835 0 00-11.621 6.065q-4.486 6.066-4.485 15.545 0 9.888 4.332 16a13.323 13.323 0 0011.366 6.116q5.708 0 11.009-5.708l21.711 26.1a53.321 53.321 0 01-33.739 11.926q-22.629 0-38.021-15.188t-15.392-37.613q0-22.323 15.545-37.715t38.173-15.392q22.118 0 37.155 15.035t15.035 37.053q-.005 2.245-.413 7.133zm53.922-94.491v139.134h-38.123V132.4zm118.751 39.957v99.18h-41.384V132.4h53.922q35.472 0 55.553 16.105 23.853 19.265 23.852 52.291 0 31.6-20.386 51.578t-52.495 19.976q-3.773 0-12.334-.408v-40.875h6.626q36.183 0 36.185-30.274 0-28.439-35.574-28.439zm208.452 54.534h-57.8a26.7 26.7 0 01.51-18.042h19.367q-2.04-11.315-12.741-11.315a13.835 13.835 0 00-11.616 6.066q-4.486 6.066-4.485 15.545 0 9.888 4.332 16a13.323 13.323 0 0011.366 6.116q5.707 0 11.009-5.708l21.711 26.1a53.321 53.321 0 01-33.739 11.926q-22.629 0-38.021-15.188t-15.392-37.613q0-22.323 15.545-37.715T1252 167.665q22.117 0 37.155 15.035t15.035 37.053q-.002 2.247-.41 7.135zm72.27 6.524v39.447a50.4 50.4 0 01-8.562.816q-22.935 0-38.225-15.086t-15.29-37.817q0-22.118 15.443-37.511t37.562-15.392q24.668 0 38.887 14.424t14.22 39.4v49.845h-38.123v-47.099q0-8.052-3.924-12.844a12.937 12.937 0 00-10.55-4.791 15 15 0 00-10.805 25.178 13.493 13.493 0 0010.091 4.077 17.291 17.291 0 009.276-2.65zM1480.429 132.4v139.134h-38.123V132.4z"/>
</svg>
